<svg width="33" height="16" viewBox="0 0 33 16" fill="none" xmlns="http://www.w3.org/2000/svg">
<rect width="33" height="16" fill="#1E1E1E"/>
<g clip-path="url(#clip0_0_1)">
<rect width="430" height="4535" transform="translate(-388 -1072)" fill="#F6F5F0"/>
<rect x="-388" y="-420" width="430" height="2483" fill="#A4E1E2"/>
<rect x="-390" y="-226" width="1195" height="430" fill="#A4E1E2"/>
<path d="M32.7071 8.70711C33.0976 8.31658 33.0976 7.68342 32.7071 7.29289L26.3431 0.928932C25.9526 0.538408 25.3195 0.538408 24.9289 0.928932C24.5384 1.31946 24.5384 1.95262 24.9289 2.34315L30.5858 8L24.9289 13.6569C24.5384 14.0474 24.5384 14.6805 24.9289 15.0711C25.3195 15.4616 25.9526 15.4616 26.3431 15.0711L32.7071 8.70711ZM0 9L32 9V7L0 7L0 9Z" fill="#004C82" fill-opacity="0.42"/>
</g>
<defs>
<clipPath id="clip0_0_1">
<rect width="430" height="4535" fill="white" transform="translate(-388 -1072)"/>
</clipPath>
</defs>
</svg>
