<svg width="297" height="11" viewBox="0 0 297 11" fill="none" xmlns="http://www.w3.org/2000/svg">
<path d="M272.083 10.0543C265.751 10.0543 262.549 7.72428 259.445 5.46487C256.328 3.19841 253.388 1.05903 247.357 1.05903C241.326 1.05903 238.386 3.19841 235.276 5.46487C232.179 7.72428 228.97 10.0543 222.645 10.0543C216.319 10.0543 213.111 7.72428 210.013 5.46487C206.903 3.19841 203.956 1.05903 197.926 1.05903C191.895 1.05903 188.955 3.19841 185.844 5.46487C182.747 7.71722 179.538 10.0543 173.213 10.0543C166.888 10.0543 163.679 7.72428 160.582 5.46487C157.471 3.19841 154.525 1.05903 148.494 1.05903C142.463 1.05903 139.523 3.19841 136.413 5.46487C133.315 7.72428 130.107 10.0543 123.781 10.0543C117.456 10.0543 114.247 7.72428 111.15 5.46487C108.04 3.19841 105.093 1.05903 99.0622 1.05903C93.0314 1.05903 90.0913 3.19841 86.9809 5.46487C83.8837 7.72428 80.6751 10.0543 74.3496 10.0543C68.0242 10.0543 64.8156 7.72428 61.7183 5.46487C58.608 3.19841 55.6613 1.05903 49.6371 1.05903C43.6128 1.05903 40.6661 3.19841 37.5558 5.46487C34.4585 7.72428 31.25 10.0543 24.9245 10.0543C18.599 10.0543 15.3904 7.72428 12.2932 5.46487C9.18283 3.19841 6.23618 1.05903 0.211914 1.05903V-6.10352e-05C6.54394 -6.10352e-05 9.74596 2.32995 12.8432 4.58935C15.9536 6.85582 18.9002 8.99519 24.9245 8.99519C30.9487 8.99519 33.8954 6.85582 37.0058 4.58935C40.103 2.33701 43.3116 -6.10352e-05 49.6371 -6.10352e-05C55.9625 -6.10352e-05 59.1711 2.32995 62.2684 4.58935C65.3787 6.85582 68.3254 8.99519 74.3496 8.99519C80.3739 8.99519 83.3206 6.85582 86.4309 4.58935C89.5282 2.33701 92.7367 -6.10352e-05 99.0622 -6.10352e-05C105.388 -6.10352e-05 108.596 2.32995 111.7 4.58935C114.81 6.85582 117.757 8.99519 123.788 8.99519C129.819 8.99519 132.759 6.85582 135.869 4.58935C138.966 2.33701 142.175 -6.10352e-05 148.5 -6.10352e-05C154.826 -6.10352e-05 158.035 2.32995 161.132 4.58935C164.242 6.85582 167.189 8.99519 173.22 8.99519C179.25 8.99519 182.19 6.85582 185.301 4.58935C188.398 2.32995 191.607 -6.10352e-05 197.932 -6.10352e-05C204.258 -6.10352e-05 207.466 2.32995 210.563 4.58935C213.674 6.85582 216.62 8.99519 222.645 8.99519C228.669 8.99519 231.616 6.85582 234.733 4.58935C237.83 2.33701 241.038 -6.10352e-05 247.364 -6.10352e-05C253.689 -6.10352e-05 256.898 2.32995 260.002 4.58935C263.119 6.85582 266.059 8.99519 272.09 8.99519C278.12 8.99519 281.06 6.85582 284.177 4.58935C287.275 2.33701 290.483 -6.10352e-05 296.815 -6.10352e-05V1.05903C290.784 1.05903 287.844 3.19841 284.727 5.46487C281.63 7.71722 278.422 10.0543 272.09 10.0543H272.083Z" fill="#EE4E25"/>
</svg>
