<svg width="207" height="14" viewBox="0 0 207 14" fill="none" xmlns="http://www.w3.org/2000/svg">
<path id="Vector" d="M171.919 13.6167C163.113 13.6167 158.66 10.592 154.352 7.65889C150.026 4.71665 145.928 1.93939 137.541 1.93939C129.154 1.93939 125.065 4.71665 120.739 7.65889C116.432 10.592 111.969 13.6167 103.172 13.6167C94.3749 13.6167 89.9126 10.592 85.6051 7.65889C81.2794 4.71665 77.1813 1.93939 68.8031 1.93939C60.4248 1.93939 56.3268 4.71665 52.0011 7.65889C47.6936 10.592 43.2312 13.6167 34.4341 13.6167C25.6369 13.6167 21.1746 10.592 16.8671 7.65889C12.5232 4.71665 8.43422 1.93939 0.046875 1.93939V0.564514C8.85313 0.564514 13.3064 3.58925 17.6139 6.52232C21.9396 9.46456 26.0376 12.2418 34.4159 12.2418C42.7941 12.2418 46.8922 9.46456 51.2179 6.52232C55.5254 3.59841 59.9877 0.564514 68.7849 0.564514C77.582 0.564514 82.0443 3.58925 86.3518 6.52232C90.6776 9.46456 94.7756 12.2418 103.154 12.2418C111.532 12.2418 115.63 9.46456 119.956 6.52232C124.263 3.59841 128.726 0.564514 137.523 0.564514C146.32 0.564514 150.782 3.58925 155.099 6.52232C159.425 9.46456 163.523 12.2418 171.91 12.2418C180.297 12.2418 184.386 9.46456 188.712 6.52232C193.02 3.59841 197.482 0.564514 206.279 0.564514V1.93939C197.892 1.93939 193.803 4.71665 189.477 7.65889C185.17 10.592 180.707 13.6167 171.91 13.6167H171.919Z" fill="#EE4E25"/>
</svg>
