<svg width="143" height="116" viewBox="0 0 143 116" fill="none" xmlns="http://www.w3.org/2000/svg">
<g id="Group 62">
<path id="Vector" d="M112.82 38.1525C112.688 35.7398 103.776 34.1904 91.6496 34.1904V37.4073C98.9031 37.4073 103.643 37.9386 106.532 38.4993C102.316 39.7979 94.5245 41.303 83.4305 41.9154C80.5483 42.0777 77.7029 42.1589 74.9755 42.1589C67.7221 42.1589 62.9749 41.6277 60.0927 41.0669C64.3091 39.7683 72.108 38.2632 83.1946 37.6508C86.0768 37.4885 88.9222 37.4073 91.6496 37.4073V34.1904C88.9148 34.1904 86.0105 34.2716 83.0177 34.4339C66.7196 35.334 53.6353 38.4624 53.7975 41.4137C54.6968 57.7269 68.6435 70.2255 84.9416 69.318C101.24 68.4179 113.727 54.4583 112.82 38.1451V38.1525Z" fill="#EE4E25"/>
<path id="Vector_2" d="M62.82 15.5605C59.267 14.3653 55.0653 14.2693 50.1412 16.7558L51.7408 20.8655C55.1464 29.6307 63.0633 33.9544 73.5823 32.9878C73.2284 32.523 72.8672 32.0656 72.4839 31.6302L71.6067 30.6047L70.6927 29.6234C70.3905 29.2914 70.0809 28.9741 69.7565 28.6642C69.4395 28.3543 69.1226 28.0297 68.7982 27.7272C67.4935 26.5098 66.115 25.3735 64.6703 24.3258C63.2181 23.2855 61.6996 22.319 60.041 21.5516C61.8102 22.164 63.4392 22.983 65.0093 23.8758C65.3042 24.0455 65.599 24.2152 65.8865 24.3922C67.8621 25.5875 69.6828 27.0189 71.3266 28.6421L74.5406 31.8073C74.2236 29.3799 73.538 27.0041 72.4766 24.798C70.4789 20.6367 67.582 17.1468 62.82 15.5458V15.5605Z" fill="#0A3D88"/>
<path id="Vector_3" d="M80.6441 33.0026C79.074 33.0026 77.7029 31.8516 77.467 30.2506C77.209 28.4945 78.4253 26.8566 80.1797 26.5983C80.6072 26.5319 82.1552 25.8753 83.8138 24.6505C85.2438 23.6028 87.2562 23.9127 88.3103 25.344C89.3571 26.7754 89.0475 28.7897 87.6174 29.8447C85.8335 31.1507 83.1872 32.6632 81.1159 32.9657C80.9537 32.9879 80.7989 33.0026 80.6441 33.0026Z" fill="#0A3D88"/>
<path id="Vector_4" d="M77.2237 18.9547C76.5013 18.9547 75.7642 18.7334 75.1376 18.276C73.538 17.1176 73.1768 14.882 74.3341 13.2809L74.6069 12.9046C75.7642 11.3036 77.9977 10.942 79.5973 12.1004C81.1969 13.2588 81.5581 15.4944 80.4008 17.0954L80.1281 17.4717C79.4278 18.4383 78.3368 18.9547 77.2311 18.9547H77.2237Z" fill="#0A3D88"/>
<path id="Vector_5" d="M113.159 12.9487C114.412 9.4072 114.597 5.1426 112.282 0L108.22 1.3871C99.5665 4.34576 95.151 12.1445 95.8587 22.8872C96.3157 22.5551 96.7801 22.2157 97.2076 21.8468L98.2323 21.0131L99.2127 20.1351C99.5444 19.8473 99.8613 19.5448 100.171 19.2423C100.481 18.9325 100.805 18.6373 101.107 18.3201C102.331 17.0658 103.473 15.7303 104.527 14.3211C105.574 12.9045 106.562 11.4214 107.351 9.77611C106.709 11.5321 105.869 13.1479 104.962 14.6974C104.041 16.2394 103.031 17.7077 101.94 19.1021C101.94 19.1021 101.94 19.1021 101.933 19.1095C101.431 19.7514 100.864 20.3343 100.252 20.8655L90.7798 29.1144L92.4457 29.9407L99.537 23.0569C105.39 21.3525 110.926 19.2423 113.152 12.9414L113.159 12.9487Z" fill="#0A3D88"/>
<path id="Vector_6" d="M89.0254 16.874C90.092 16.874 90.9567 16.0085 90.9567 14.9409C90.9567 13.8733 90.092 13.0078 89.0254 13.0078C87.9588 13.0078 87.0941 13.8733 87.0941 14.9409C87.0941 16.0085 87.9588 16.874 89.0254 16.874Z" fill="#0A3D88"/>
<g id="Group">
<path id="Vector_7" d="M5.30113 57.5572C5.64759 57.69 5.99404 57.8228 6.3405 57.9482C6.43633 57.9851 6.53953 58.0736 6.65747 57.9851C6.67221 57.9704 6.71644 57.9851 6.74593 57.9999C6.87861 58.0515 7.01867 58.1032 7.15135 58.1548C7.23981 58.1917 7.33564 58.2212 7.42409 58.2581C7.51255 58.295 7.60101 58.3393 7.69684 58.2729C7.71158 58.2581 7.75581 58.2802 7.78529 58.295C8.07278 58.4057 8.36026 58.509 8.64037 58.6196C8.69197 58.6418 8.7362 58.6344 8.77306 58.6049C8.80254 58.5827 8.83203 58.5827 8.86152 58.5975C9.10477 58.686 9.34066 58.7746 9.58391 58.8705C9.63551 58.8926 9.67974 58.8705 9.7166 58.8484C9.74608 58.8262 9.77557 58.8336 9.80505 58.8484C10.0409 58.9443 10.2842 59.0328 10.5275 59.1213C10.5422 59.1213 10.5643 59.1435 10.5717 59.1361C10.6823 59.0549 10.7854 59.114 10.8886 59.1509C10.9918 59.1951 11.1024 59.232 11.2056 59.2689C11.2793 59.2984 11.353 59.3279 11.4268 59.2689C11.4489 59.2468 11.4857 59.2689 11.5152 59.2763C11.7069 59.3501 11.9059 59.4312 12.1049 59.4976C12.2155 59.5345 12.3261 59.6452 12.4661 59.5493C12.4882 59.5345 12.5251 59.5493 12.5546 59.564C12.643 59.5936 12.7389 59.6304 12.8273 59.6673C12.9305 59.7042 13.0411 59.7485 13.1443 59.7854C13.2328 59.8223 13.3212 59.8665 13.4097 59.7928C13.4539 59.8075 13.4981 59.8149 13.5423 59.8297C14.6259 60.2355 15.7095 60.6486 16.7931 61.0544C16.8668 61.084 16.9406 61.1135 17.0216 61.1356C17.0438 61.1356 17.088 61.1208 17.1027 61.1061C17.1396 61.0323 17.1617 60.9585 17.1912 60.8847C17.2133 60.8331 17.1396 60.6929 17.0732 60.6486C17.0585 60.6413 17.0364 60.6413 17.029 60.6339C16.9922 60.5601 16.9627 60.4863 16.9258 60.4125C16.889 60.324 16.8447 60.2355 16.8079 60.1469C16.7784 60.0731 16.7636 59.992 16.6604 59.9772C16.6162 59.8887 16.5794 59.8075 16.5351 59.719C16.4983 59.6452 16.4688 59.5714 16.4393 59.4976C16.3066 59.446 16.2845 59.3058 16.2329 59.2025C16.1445 59.1878 16.115 59.114 16.0855 59.0402C16.056 58.9664 16.0191 58.8926 15.9823 58.8188C15.9528 58.7672 15.8717 58.7672 15.8496 58.6934C15.8349 58.6344 15.798 58.5754 15.7759 58.5163C15.6285 58.4721 15.6285 58.3245 15.5621 58.2212C15.4294 58.1917 15.4294 58.0515 15.3778 57.963C15.3483 57.9113 15.2673 57.9113 15.2451 57.8449C15.2304 57.7859 15.1935 57.7269 15.1641 57.6678C15.083 57.6457 15.0387 57.5793 15.0166 57.5055C14.9503 57.4908 14.9061 57.4539 14.8839 57.3875C14.8618 57.3284 14.825 57.2768 14.7955 57.2178C14.6997 57.2104 14.707 57.085 14.6407 57.0628C14.5375 57.0333 14.5522 56.8858 14.4417 56.8784C14.4048 56.812 14.3606 56.7382 14.3385 56.6644C14.3163 56.6054 14.2574 56.6128 14.2279 56.5833C14.1984 56.5537 14.1837 56.5021 14.1615 56.4578C14.0436 56.4578 14.0657 56.3029 13.9625 56.2807C13.8888 56.2586 13.9035 56.1406 13.8077 56.1184C13.7635 56.111 13.7561 56.0446 13.734 56.0004C13.6971 55.934 13.6898 55.8454 13.5866 55.8307C13.5645 55.7864 13.5423 55.7421 13.5202 55.7052C13.4539 55.6905 13.417 55.6462 13.3876 55.5872C13.3581 55.5208 13.2549 55.5134 13.2401 55.4175C13.2254 55.3585 13.1222 55.3732 13.1148 55.2921C13.1074 55.2183 13.0042 55.2183 12.9895 55.1666C12.9674 55.0486 12.7978 55.0412 12.7978 54.9158C12.761 54.8863 12.7094 54.8863 12.6873 54.842C12.6357 54.7461 12.6357 54.7535 12.562 54.7166C12.4956 54.6871 12.4882 54.6944 12.4366 54.5911C12.4072 54.5321 12.3187 54.5469 12.304 54.4731C12.2966 54.4288 12.2597 54.3919 12.2155 54.3772C12.1934 54.3698 12.1713 54.3329 12.1639 54.3108C12.1418 54.2591 12.1123 54.2296 12.0607 54.2222C11.9722 54.2075 11.9206 54.1484 11.8985 54.0673C11.8174 54.0378 11.7732 53.9787 11.7511 53.905C11.7069 53.8902 11.6626 53.8681 11.6184 53.8533C11.5816 53.8459 11.5668 53.8238 11.5521 53.7943C11.5005 53.6984 11.5005 53.7058 11.4194 53.6762C11.353 53.6541 11.353 53.6541 11.2941 53.5508C11.2646 53.5065 11.2056 53.5065 11.1835 53.4697C11.1466 53.3959 11.1098 53.3368 11.0213 53.3147C10.9329 53.2926 10.8297 53.2704 10.8076 53.1524C10.7633 53.1303 10.7265 53.1081 10.6822 53.0934C10.6306 53.0786 10.6012 53.0491 10.5864 52.9974C10.5717 52.9458 10.5275 52.9237 10.4832 52.9163C10.4169 52.8942 10.3653 52.872 10.3432 52.7982C10.3432 52.7835 10.3358 52.7613 10.3211 52.754C10.2031 52.6876 10.0336 52.7023 9.98934 52.5179C9.93037 52.4957 9.8714 52.4662 9.80505 52.4515C9.73871 52.4367 9.69448 52.3924 9.67974 52.326C9.67237 52.2965 9.64288 52.2818 9.60603 52.267C9.53231 52.2375 9.4586 52.208 9.38488 52.1785C9.33328 52.0088 9.16374 52.0235 9.0458 51.9571C9.01632 51.9424 8.97946 51.935 8.97209 51.9129C8.91312 51.7505 8.74357 51.7579 8.62563 51.6989C8.5814 51.6768 8.53717 51.662 8.49295 51.6472C8.4782 51.6472 8.46346 51.6251 8.46346 51.6177C8.44135 51.4997 8.33077 51.4923 8.24969 51.4554C8.16123 51.4185 8.05803 51.3964 7.98432 51.3447C7.92535 51.3078 7.92535 51.2045 7.82952 51.1824C7.74844 51.1677 7.68209 51.1308 7.60101 51.1013L7.37249 51.0127L7.14398 50.9242C7.14398 50.9242 7.1145 50.9168 7.09975 50.9094C7.09238 50.902 7.08501 50.8799 7.07764 50.8652C7.05552 50.8283 7.04815 50.784 6.98918 50.7619C6.55427 50.5995 6.11936 50.4372 5.68445 50.2675C5.6181 50.2454 5.5665 50.2454 5.50753 50.2749C5.49279 50.2823 5.47805 50.2897 5.4633 50.2823C5.3601 50.2454 5.2569 50.2011 5.14633 50.1642C5.04313 50.1347 4.94731 50.0388 4.83673 50.1273C4.82936 50.1347 4.80725 50.1347 4.79251 50.1273C4.73354 50.1052 4.67456 50.0831 4.60822 50.0609C4.51977 50.024 4.43131 49.9724 4.34285 50.0462C4.29862 50.0314 4.24702 50.024 4.21017 50.0093C4.15857 49.9871 4.11434 49.9945 4.07748 50.0167C4.02588 50.0462 3.98902 50.024 3.9448 50.0167C3.90057 50.0019 3.85634 49.965 3.81211 49.9945C3.75314 50.0314 3.69417 50.0388 3.6352 50.0019C3.62783 50.0019 3.60571 50.0093 3.59097 50.0167C3.532 50.0609 3.47303 50.0314 3.41406 50.024C3.35509 50.024 3.31086 50.0831 3.23714 50.0535C3.1708 50.024 3.12657 50.0978 3.06023 50.0904C3.03074 50.0904 2.99389 50.0683 2.97177 50.0757C2.89806 50.1052 2.82434 50.1421 2.75063 50.1716C2.67692 50.2011 2.61057 50.2528 2.52949 50.2011C2.45578 50.2306 2.38206 50.2675 2.30835 50.297C2.23463 50.3265 2.16092 50.3782 2.08721 50.3929C1.96189 50.4151 1.95452 50.5626 1.83658 50.5922C1.74812 50.6143 1.65966 50.6659 1.57121 50.7102C1.54172 50.7914 1.48275 50.8356 1.40904 50.8578C1.39429 50.9537 1.31321 50.9684 1.24687 51.0127C1.22475 51.0275 1.22475 51.0865 1.21001 51.0939C1.09944 51.1234 1.06258 51.2045 1.0331 51.3005C1.01098 51.3595 0.988868 51.4185 0.966754 51.4849C0.94464 51.5513 0.848811 51.5366 0.826697 51.5956C0.738241 51.8169 0.657155 52.0457 0.568699 52.2744C0.553956 52.326 0.605555 52.3629 0.605555 52.4072C0.598184 52.481 0.568699 52.5621 0.539213 52.6359C0.517099 52.6876 0.52447 52.7318 0.546584 52.7687C0.568699 52.7982 0.568699 52.8277 0.553956 52.8573C0.509727 52.9458 0.487613 53.0343 0.553956 53.1229C0.487613 53.2262 0.553956 53.3073 0.605555 53.3885C0.649784 53.477 0.583441 53.573 0.642412 53.6615C0.694012 53.7353 0.723498 53.8386 0.767726 53.9197C0.701384 54.0599 0.819326 54.1558 0.848811 54.2739C0.870926 54.3477 0.959382 54.3329 0.981497 54.3919C1.00361 54.451 1.0331 54.51 1.06258 54.569C1.09207 54.628 1.12155 54.6797 1.15104 54.7387C1.2911 54.7682 1.27635 54.9158 1.33532 54.9969C1.34269 55.0117 1.35744 55.0191 1.37218 55.0265C1.46801 55.0412 1.44589 55.1666 1.52698 55.1888C1.56384 55.1962 1.58595 55.2109 1.60069 55.2478C1.62281 55.3142 1.65966 55.3585 1.72601 55.3732C1.74812 55.4175 1.77024 55.4618 1.79235 55.4987C1.86606 55.5134 1.90292 55.5577 1.91766 55.6241C1.91766 55.6388 1.93241 55.6536 1.94715 55.661C2.00612 55.6905 2.07246 55.6979 2.11669 55.7421C2.16092 55.779 2.16092 55.8528 2.23463 55.8749C2.2936 55.8971 2.27886 55.993 2.3452 56.0151C2.40418 56.0373 2.46315 56.0668 2.52212 56.0815C2.57372 56.0963 2.6032 56.1332 2.61795 56.1775C2.62532 56.2143 2.64743 56.2365 2.67692 56.2439C2.75063 56.2734 2.83909 56.2881 2.89806 56.3324C2.95703 56.3767 2.95703 56.4726 3.05286 56.4947C3.11183 56.5021 3.1708 56.539 3.23714 56.5611C3.29611 56.5833 3.29611 56.5833 3.36983 56.6865C3.39194 56.7161 3.40668 56.7308 3.43617 56.7456C3.59097 56.7972 3.7384 56.8562 3.88583 56.9153C3.95954 56.9448 4.04062 56.9669 4.05537 57.0555C4.05537 57.0702 4.07011 57.085 4.08485 57.0923C4.11434 57.1071 4.14382 57.1145 4.17331 57.1292C4.56399 57.2768 4.95468 57.4244 5.34536 57.5719L5.30113 57.5572Z" fill="#0A3D88"/>
<path id="Vector_8" d="M16.2624 46.025C16.1002 45.9513 16.0339 45.8996 15.9602 45.8849C15.8938 45.8701 15.8201 45.9365 15.739 45.8849C15.6727 45.8406 15.599 45.8111 15.5252 45.7742C15.4663 45.7447 15.4073 45.7225 15.3557 45.6856C15.3041 45.6561 15.2599 45.6783 15.223 45.693C15.1862 45.7078 15.164 45.7078 15.1346 45.693C15.083 45.6635 15.0166 45.6414 14.965 45.6045C14.9355 45.5824 14.906 45.5824 14.8766 45.6045C14.8176 45.6414 14.7586 45.6045 14.6996 45.6045C14.6407 45.6045 14.5891 45.6488 14.5227 45.6119C14.4564 45.575 14.3753 45.6709 14.3016 45.6119C14.2868 45.5971 14.2426 45.6119 14.2131 45.6266C13.9699 45.7078 13.7266 45.7963 13.4834 45.8775C13.417 45.8996 13.4244 45.9882 13.3507 46.0029C13.2917 46.0103 13.2254 46.0398 13.1664 46.0619C13.1443 46.0767 13.1222 46.1062 13.1148 46.1357C13.0853 46.1874 13.0706 46.2538 12.9969 46.2685C12.9821 46.2685 12.96 46.2685 12.9526 46.2833C12.8568 46.3792 12.8715 46.571 12.6873 46.5932C12.5988 46.7629 12.5103 46.9326 12.4293 47.1096C12.4071 47.1613 12.4882 47.2203 12.444 47.2867C12.4071 47.3384 12.3924 47.4048 12.3555 47.4564C12.3187 47.5081 12.3555 47.5523 12.3703 47.5892C12.385 47.6187 12.3777 47.6483 12.3629 47.6778C12.3187 47.7442 12.2818 47.8179 12.3334 47.8991C12.3482 47.9286 12.3334 47.9581 12.3187 47.9876C12.2745 48.0541 12.2523 48.1278 12.2966 48.209C12.3187 48.2533 12.3482 48.3049 12.3408 48.3418C12.3261 48.423 12.3113 48.4894 12.3482 48.5631C12.3039 48.6369 12.3187 48.7107 12.3482 48.7845C12.3482 48.7993 12.3555 48.814 12.3629 48.8288C12.3703 48.8435 12.3777 48.8583 12.3777 48.873C12.3777 48.8878 12.3924 48.9025 12.385 48.9173C12.385 48.9321 12.3703 48.9468 12.3629 48.9616C12.3629 48.9763 12.3482 48.9911 12.3482 49.0058C12.3482 49.0206 12.3555 49.0354 12.3629 49.0501C12.5177 49.5076 12.6725 49.965 12.8347 50.4151C12.8642 50.4962 12.8568 50.6143 12.9747 50.6438C13.0116 50.7323 13.0411 50.8209 13.0779 50.9094C13.2327 50.9611 13.1885 51.1234 13.2548 51.2267C13.2548 51.3152 13.3507 51.3447 13.3875 51.4038C13.4244 51.4702 13.4391 51.5513 13.4686 51.6325C13.4686 51.6472 13.4981 51.6546 13.5128 51.6546C13.5497 51.662 13.5644 51.6841 13.5718 51.721C13.5718 51.7505 13.5866 51.8022 13.6087 51.8096C13.7045 51.8391 13.7119 51.9202 13.7414 51.994C13.7635 52.053 13.7708 52.1121 13.8446 52.1416C13.8888 52.1637 13.8814 52.2227 13.9109 52.2596C13.933 52.2965 13.992 52.3113 14.0067 52.3482C14.0362 52.4072 14.051 52.4662 14.1247 52.4883C14.1394 52.5326 14.1615 52.5769 14.1763 52.6212C14.2721 52.6433 14.2868 52.7244 14.3163 52.7982C14.3827 52.8204 14.4122 52.872 14.4343 52.931C14.449 52.9901 14.5448 52.9901 14.5522 53.0638C14.5522 53.1376 14.6333 53.1524 14.6702 53.1967C14.6702 53.3221 14.8397 53.3368 14.8323 53.4696C14.9134 53.4992 14.9503 53.5656 14.965 53.6467C15.0314 53.6689 15.0756 53.7131 15.083 53.7795C15.083 53.8164 15.1124 53.8312 15.1493 53.8459C15.2525 53.8681 15.2967 53.9492 15.3336 54.0451C15.4073 54.0673 15.422 54.1263 15.4442 54.1853C15.4589 54.2222 15.5326 54.237 15.54 54.2739C15.5621 54.3624 15.6137 54.4067 15.6948 54.4362C15.7464 54.4509 15.7685 54.4952 15.7759 54.5395C15.7759 54.5764 15.798 54.5985 15.8275 54.6133C15.9233 54.6502 15.997 54.6944 16.0118 54.8051C16.0781 54.8272 16.1223 54.8715 16.1297 54.9379C16.1297 54.9748 16.1592 54.9896 16.1887 55.0043C16.2624 55.0338 16.3361 55.0633 16.3508 55.1593C16.3508 55.174 16.3656 55.1888 16.3729 55.1961C16.4319 55.2404 16.5351 55.2404 16.5499 55.3363C16.5646 55.4101 16.6531 55.4175 16.6678 55.4691C16.6973 55.5577 16.7415 55.6019 16.8226 55.6315C16.8521 55.6388 16.8816 55.6684 16.8889 55.6905C16.9037 55.7864 16.97 55.8233 17.0511 55.8454C17.088 55.8602 17.1027 55.8749 17.1175 55.9044C17.1691 56.0077 17.1691 56.0077 17.2354 56.0373C17.3017 56.0741 17.3091 56.0741 17.3533 56.1701C17.3681 56.1996 17.3828 56.2217 17.4197 56.2365C17.4934 56.266 17.5671 56.2955 17.5819 56.3914C17.5819 56.4209 17.6113 56.4431 17.6482 56.4504C17.7293 56.48 17.7883 56.5242 17.803 56.6128C17.803 56.6275 17.8177 56.6423 17.8325 56.6496C17.862 56.6644 17.8915 56.6865 17.9209 56.6939C18.0168 56.7161 17.9947 56.8267 18.061 56.871C18.1126 56.9079 18.1789 56.9153 18.2158 56.9669C18.2969 57.0923 18.2969 57.085 18.3706 57.1292C18.3853 57.1366 18.4001 57.144 18.4148 57.1514C18.4222 57.1587 18.4296 57.1809 18.4369 57.1883C18.4763 57.2571 18.5156 57.3014 18.5549 57.3211C18.6212 57.358 18.6286 57.358 18.6728 57.4539C18.6876 57.4834 18.7023 57.5055 18.7392 57.5203C18.8129 57.5498 18.8866 57.5793 18.9013 57.6752C18.9013 57.69 18.9161 57.7047 18.9235 57.7121C18.9751 57.7416 19.0488 57.7638 19.0856 57.808C19.1225 57.8523 19.1225 57.9261 19.1888 57.9556C19.2331 57.9777 19.2257 58.0441 19.2552 58.0736C19.2994 58.1179 19.3584 58.1474 19.4173 58.1696C19.5058 58.1991 19.5353 58.2581 19.5648 58.3393C19.5795 58.3761 19.6458 58.3761 19.668 58.4278C19.7122 58.5311 19.7196 58.5311 19.7859 58.5606C19.8522 58.5975 19.8596 58.5975 19.9038 58.6934C19.9186 58.7229 19.9333 58.7451 19.9702 58.7598C20.0439 58.7893 20.1176 58.8188 20.1324 58.9148C20.1324 58.9295 20.1471 58.9443 20.1545 58.9516C20.2356 58.9959 20.3388 59.0107 20.3535 59.1361C20.4125 59.1877 20.4788 59.2246 20.4862 59.3132C20.5525 59.3574 20.6041 59.4091 20.6262 59.4903C20.6262 59.5124 20.6778 59.5198 20.7073 59.5345C20.7368 59.5493 20.7737 59.5567 20.7884 59.5788C20.8179 59.6157 20.8179 59.6747 20.8474 59.7042C20.8769 59.7411 20.9358 59.7337 20.9506 59.7928C20.958 59.837 20.9727 59.8887 21.0243 59.9034C21.0538 59.9108 21.0833 59.9329 21.1128 59.9477C21.1422 59.9625 21.1644 59.9846 21.1644 60.0215C21.1791 60.1248 21.3118 60.1395 21.3192 60.2428C21.3192 60.265 21.3634 60.2797 21.3855 60.2945C21.415 60.3092 21.4445 60.324 21.474 60.3387C21.5329 60.3756 21.5034 60.4642 21.5698 60.4937C21.6435 60.5232 21.6361 60.597 21.673 60.6413C21.7172 60.6855 21.7762 60.7077 21.7909 60.7741C21.7909 60.7888 21.7983 60.8183 21.8057 60.8183C21.9015 60.8405 21.9089 60.929 21.9457 60.9954C22.0194 61.0175 22.0489 61.0692 22.0637 61.1356C22.0637 61.1651 22.0932 61.1872 22.13 61.1946C22.2406 61.2168 22.2774 61.3053 22.2995 61.4012C22.3143 61.4897 22.3733 61.534 22.4543 61.5635C22.4838 61.5709 22.5133 61.6004 22.5207 61.6226C22.5428 61.689 22.5649 61.7406 22.6386 61.7627C22.6534 61.807 22.6755 61.8513 22.6902 61.8955C22.705 61.9398 22.7271 61.9841 22.7418 62.0284C22.8377 62.0431 22.8377 62.1464 22.8819 62.2054C22.9777 62.2202 22.9556 62.3456 23.0219 62.3751C23.0883 62.412 23.0883 62.4784 23.1251 62.5227C23.1841 62.5743 23.2357 62.626 23.2578 62.7071C23.2726 62.7809 23.2947 62.8695 23.3905 62.8842C23.4053 62.9285 23.4347 62.9728 23.4347 63.0244C23.4347 63.1498 23.6043 63.172 23.6043 63.2974C23.6633 63.3638 23.7812 63.4081 23.8549 63.3786C23.8844 63.3712 23.9139 63.3564 23.9434 63.3491C23.9802 63.3343 24.0318 63.2605 24.0097 63.2384C23.9286 63.1351 24.0539 63.017 23.9729 62.9211C23.9802 62.8768 24.0023 62.8326 23.995 62.7883C23.9802 62.685 23.8844 62.5891 23.9581 62.471C23.936 62.353 23.8402 62.2423 23.9065 62.1095C23.8844 62.0505 23.8697 61.9841 23.8402 61.9251C23.8033 61.8587 23.8623 61.807 23.8549 61.748C23.8328 61.6447 23.737 61.5488 23.8181 61.4307C23.7886 61.3422 23.7665 61.2463 23.737 61.1577C23.8033 61.0618 23.7222 60.9806 23.7075 60.8847C23.7075 60.87 23.6854 60.8478 23.6927 60.8405C23.7517 60.6929 23.6706 60.5601 23.619 60.4347C23.5822 60.3387 23.6633 60.2576 23.6043 60.1617C23.5674 60.1026 23.5232 60.0215 23.5748 59.9403C23.5748 59.9329 23.5822 59.9108 23.5748 59.8961C23.5527 59.837 23.5306 59.778 23.5158 59.7116C23.479 59.6083 23.4495 59.4976 23.4126 59.3943C23.4863 59.2763 23.3831 59.1877 23.3758 59.0771C23.3758 59.0033 23.4126 58.9295 23.3758 58.8557C23.3389 58.7819 23.3315 58.7008 23.2947 58.627C23.2578 58.5606 23.3537 58.5163 23.3094 58.4499C23.2873 58.413 23.2799 58.3614 23.2578 58.3171C23.2357 58.2581 23.2136 58.1991 23.1915 58.1327C23.2578 57.9113 23.103 57.7416 23.0588 57.5424C23.0441 57.4686 23.1104 57.3948 23.0588 57.3137C23.0219 57.262 23.0146 57.1956 22.9925 57.1366C22.963 57.0628 22.9409 56.9817 22.9114 56.9079C22.9925 56.7898 22.904 56.6939 22.8745 56.5906C22.8524 56.4947 22.8155 56.4062 22.7787 56.3176C22.845 56.111 22.6976 55.9561 22.6607 55.7716C22.6018 55.6831 22.6976 55.5946 22.646 55.4987C22.6018 55.4175 22.5797 55.3216 22.5502 55.2257C22.5207 55.1519 22.4986 55.0707 22.4691 54.9969C22.4396 54.9084 22.4027 54.8125 22.3733 54.7239C22.3733 54.7092 22.3733 54.6944 22.3733 54.6797C22.3733 54.6502 22.3954 54.6206 22.4027 54.5911C22.4027 54.5764 22.3954 54.5616 22.388 54.5469C22.1816 53.9419 21.9678 53.3295 21.7614 52.7244C21.7614 52.7097 21.7467 52.6949 21.7467 52.6802C21.7467 52.5916 21.6288 52.5916 21.6066 52.5031C21.5919 52.4219 21.555 52.3482 21.5329 52.2744C21.5034 52.2006 21.4813 52.1194 21.4518 52.0457C21.4224 51.9719 21.4002 51.8907 21.3708 51.8169C21.2086 51.7136 21.216 51.5144 21.1422 51.3669C21.0096 51.3226 21.0317 51.1898 20.9727 51.0939C20.9358 51.0275 20.8474 51.0053 20.84 50.9168C20.8326 50.8578 20.7958 50.7987 20.781 50.7323C20.7663 50.6659 20.7368 50.6143 20.6631 50.5995C20.6484 50.5553 20.6336 50.511 20.6115 50.4667C20.6115 50.452 20.582 50.452 20.5673 50.4446C20.5525 50.4446 20.5304 50.4298 20.523 50.4225C20.5083 50.3929 20.5009 50.3634 20.4862 50.3339C20.4567 50.2675 20.4567 50.1863 20.3756 50.1347C20.3314 50.1052 20.324 50.0167 20.2724 49.9871C20.2061 49.9502 20.1913 49.8912 20.1692 49.8322C20.1397 49.7584 20.1324 49.6699 20.0365 49.6477C20.0218 49.6035 19.9997 49.5592 19.9849 49.5149C19.9186 49.4928 19.8891 49.4485 19.867 49.3821C19.8449 49.3157 19.7417 49.2936 19.7343 49.2051C19.7269 49.146 19.6237 49.146 19.6164 49.0722C19.6164 48.9985 19.5058 48.9911 19.5058 48.9394C19.491 48.8214 19.3289 48.7992 19.3362 48.6664C19.2773 48.6443 19.2257 48.6074 19.2183 48.5336C19.2109 48.4746 19.1446 48.482 19.1151 48.4451C19.0856 48.4082 19.0783 48.3566 19.0561 48.3197C19.0561 48.3049 19.0267 48.3049 19.0119 48.2975C18.9382 48.268 18.8866 48.2238 18.8497 48.1426C18.8276 48.0762 18.7244 48.0541 18.7244 47.9581C18.6876 47.936 18.6507 47.9065 18.6065 47.8844C18.5549 47.8622 18.5328 47.8327 18.518 47.7811C18.5107 47.722 18.4664 47.7073 18.4222 47.6851C18.3853 47.663 18.3337 47.6556 18.3116 47.604C18.2453 47.4859 18.2453 47.4859 18.2011 47.4712C18.1347 47.449 18.0905 47.4122 18.0831 47.3384C18.0831 47.3015 18.0536 47.2867 18.0241 47.272C17.9504 47.2424 17.8767 47.2129 17.862 47.117C17.862 47.0801 17.8325 47.0728 17.7956 47.058C17.7219 47.0285 17.6556 46.9842 17.5819 46.9473C17.5745 46.8293 17.486 46.7924 17.3902 46.7555C17.3091 46.726 17.2575 46.6817 17.2354 46.5932C17.2354 46.571 17.1912 46.5563 17.1617 46.5415C17.0585 46.4899 16.9553 46.453 16.8595 46.394C16.7268 46.3128 16.5425 46.3128 16.4983 46.121C16.4024 46.0693 16.2992 46.0177 16.2919 46.0103L16.2624 46.025Z" fill="#0A3D88"/>
<path id="Vector_9" d="M20.2355 67.407C20.2134 67.3406 20.1987 67.2816 20.1765 67.2225C20.0881 67.193 20.066 67.1192 20.0512 67.0381C19.9849 67.0159 19.948 66.9717 19.9407 66.8979C19.9407 66.861 19.9112 66.8462 19.8817 66.8315C19.8153 66.7946 19.8153 66.7946 19.7343 66.6692C19.7269 66.6544 19.7195 66.6397 19.7121 66.6323C19.6311 66.588 19.5279 66.5585 19.5279 66.4404C19.491 66.4109 19.4541 66.3814 19.4099 66.3593C19.3657 66.3372 19.3362 66.3003 19.3288 66.256C19.3288 66.2412 19.3288 66.2265 19.3141 66.2117C19.3067 66.197 19.292 66.1896 19.2772 66.1822C19.1593 66.0937 18.9603 66.0863 18.9308 65.8945C18.8644 65.8576 18.7907 65.8133 18.7244 65.7764C18.6949 65.7617 18.6728 65.7469 18.6654 65.71C18.6507 65.6657 18.6507 65.6215 18.5991 65.592C18.4959 65.5477 18.4 65.4813 18.2968 65.437C18.2305 65.4075 18.1936 65.3706 18.1863 65.2968C18.1863 65.2821 18.1789 65.2599 18.1642 65.2526C18.0683 65.2009 17.9651 65.1419 17.8693 65.0902C17.7956 65.0533 17.7292 65.0165 17.7145 64.9279C17.7145 64.9058 17.6776 64.8836 17.6482 64.8689C17.5228 64.8025 17.3902 64.7361 17.2648 64.6623C17.1616 64.5959 17.0142 64.5885 16.9847 64.4262C16.9847 64.4041 16.9405 64.3819 16.9184 64.3672C16.137 63.954 15.363 63.5334 14.5817 63.1203C14.5374 63.0981 14.4932 63.0834 14.449 63.1055C14.4342 63.1055 14.4121 63.1203 14.4047 63.1203C14.3015 63.076 14.1983 63.0317 14.1099 62.9727C14.0214 62.9137 13.933 63.017 13.8371 62.9432C13.7487 62.8768 13.6381 62.8399 13.5423 62.7809C13.4907 62.7513 13.4538 62.7661 13.4096 62.7809C13.3949 62.7809 13.3728 62.7956 13.3654 62.7956C13.3064 62.7661 13.2548 62.7366 13.1958 62.7071C13.1369 62.6776 13.1295 62.6702 13.0189 62.6923C12.96 62.7071 12.9305 62.6702 12.8862 62.6554C12.8052 62.6185 12.7314 62.53 12.6209 62.5964C12.6061 62.5964 12.5914 62.5964 12.5766 62.5964C12.5029 62.5743 12.4513 62.4857 12.3629 62.53C12.2965 62.5595 12.2376 62.5005 12.186 62.5152C12.1049 62.5448 12.0312 62.5374 11.9648 62.4857C11.9206 62.4562 11.8764 62.4562 11.8321 62.4857C11.7805 62.5079 11.7437 62.471 11.6994 62.4636C11.6552 62.4636 11.611 62.4857 11.5594 62.4931C11.4857 62.4267 11.412 62.4784 11.3382 62.4784C11.294 62.4784 11.2572 62.4193 11.2056 62.4562C11.1318 62.5079 11.0581 62.412 10.9844 62.4562C10.9254 62.4857 10.8591 62.4931 10.8001 62.5152C10.7854 62.5152 10.7633 62.5152 10.7559 62.5079C10.6822 62.4415 10.6085 62.5448 10.5348 62.5005C10.52 62.4931 10.5053 62.4784 10.4905 62.4784C10.4168 62.4931 10.3357 62.5226 10.262 62.5374C10.2031 62.5521 10.1367 62.5669 10.0777 62.5816C10.004 62.5226 9.92294 62.5669 9.8566 62.589C9.64283 62.6554 9.42906 62.7292 9.20791 62.7809C9.1342 62.803 9.14157 62.8915 9.07523 62.8989C9.00889 62.9063 8.94992 62.9358 8.89094 62.9506C8.83197 62.9727 8.773 62.9948 8.71403 63.017C8.69192 63.1129 8.57397 63.0834 8.53712 63.1498C8.50763 63.194 8.47815 63.2236 8.42655 63.2309C8.36758 63.2383 8.35283 63.2826 8.33072 63.3268C8.30123 63.3859 8.27175 63.4375 8.19803 63.4449C8.18329 63.4449 8.16118 63.4449 8.15381 63.4597C8.07272 63.5998 7.99901 63.74 7.92529 63.8802C7.92529 63.8876 7.93266 63.9097 7.93266 63.9245C7.94249 63.9983 7.93512 64.0573 7.91055 64.1016C7.91055 64.1016 7.86632 64.168 7.87369 64.1827C7.90318 64.2639 7.91055 64.3303 7.87369 64.4041C7.89581 64.4631 7.90318 64.5295 7.93266 64.5885C7.96952 64.6549 7.90318 64.7066 7.91055 64.7656C7.91055 64.7804 7.91792 64.8025 7.93266 64.8025C8.02849 64.832 8.03586 64.9205 8.05061 64.9943C8.07272 65.0829 8.10958 65.1419 8.19803 65.164C8.29386 65.1935 8.26438 65.3042 8.33072 65.3485C8.38232 65.3854 8.45603 65.3854 8.47815 65.4518C8.50026 65.5182 8.52237 65.5698 8.58872 65.592C8.63295 65.6067 8.67717 65.6362 8.71403 65.6584C8.9278 65.769 9.14157 65.8871 9.34797 65.9978C9.43643 66.1158 9.55437 65.9535 9.65757 66.0494C9.73865 66.1232 9.8566 66.1527 9.95243 66.2117C10.004 66.2412 10.0409 66.2117 10.0851 66.2043C10.1146 66.197 10.1441 66.2043 10.1736 66.2191C10.2104 66.2486 10.262 66.2634 10.2989 66.2855C10.3579 66.3298 10.4168 66.3224 10.4758 66.2929C10.4905 66.2929 10.5053 66.2929 10.52 66.2929C10.6011 66.3298 10.6822 66.4036 10.7854 66.3445C10.8075 66.3372 10.8444 66.3593 10.8738 66.3667C10.9697 66.4109 11.0581 66.5069 11.1834 66.4331C11.1908 66.4331 11.2129 66.4331 11.2277 66.4404C11.3088 66.4921 11.3898 66.529 11.493 66.4847C11.5225 66.47 11.5668 66.529 11.6257 66.5142C11.7289 66.4921 11.7363 66.4921 11.8026 66.529C11.8616 66.5585 11.9132 66.588 11.9722 66.6175C11.9796 66.6175 12.0017 66.6175 12.0164 66.6028C12.0828 66.5659 12.1344 66.6028 12.1933 66.6175C12.2523 66.6249 12.3113 66.5659 12.3702 66.6175C12.3924 66.6397 12.4292 66.6323 12.4587 66.6175C12.5029 66.5954 12.5472 66.6028 12.5914 66.6323C12.6577 66.6839 12.7314 66.6765 12.8125 66.6618C12.8641 66.647 12.9231 66.7134 12.9894 66.6766C13.041 66.647 13.0779 66.6913 13.1221 66.6987C13.1664 66.6987 13.2106 66.6765 13.2622 66.6692C13.3359 66.7356 13.4096 66.6913 13.4833 66.6766C13.5423 66.7208 13.6013 66.7134 13.6602 66.6913C13.6824 66.6839 13.7192 66.6913 13.7487 66.7134C13.8224 66.7577 13.8887 66.7798 13.9698 66.743C14.0141 66.7208 14.0657 66.6913 14.1099 66.7061C14.191 66.7282 14.2573 66.743 14.331 66.7061C14.4047 66.7577 14.4785 66.743 14.5522 66.7061C14.6111 66.7503 14.6627 66.7577 14.7291 66.7208C14.7807 66.6987 14.8249 66.7651 14.8618 66.7503C14.965 66.6987 15.0461 66.7503 15.1271 66.7872C15.1493 66.802 15.1861 66.7872 15.2156 66.7872C15.2451 66.7872 15.2819 66.7725 15.3041 66.7872C15.3483 66.8094 15.3925 66.8167 15.4367 66.7946C15.4662 66.7798 15.5031 66.7725 15.5252 66.7946C15.5547 66.8167 15.5842 66.8241 15.6137 66.8167C15.6726 66.7872 15.7316 66.7798 15.7906 66.8315C15.8348 66.8167 15.879 66.8094 15.9306 66.7946C15.9896 66.8389 16.0412 66.8315 16.1075 66.8167C16.1813 66.7946 16.2476 66.8684 16.3287 66.8167C16.3803 66.7872 16.4392 66.8758 16.5056 66.8315C16.5719 66.7872 16.6309 66.8684 16.6825 66.8462C16.771 66.8167 16.8373 66.8315 16.9036 66.8758C16.9331 66.8979 16.9626 66.9053 16.9921 66.8979C17.0511 66.8684 17.11 66.8684 17.169 66.9127C17.2132 66.8979 17.2575 66.8905 17.3091 66.8758C17.368 66.92 17.4196 66.92 17.486 66.8905C17.5376 66.8684 17.5818 66.9348 17.6187 66.92C17.7219 66.8684 17.803 66.92 17.884 66.9643C17.9062 66.9791 17.943 66.9643 17.9725 66.9643C18.002 66.9643 18.0315 66.9495 18.061 66.9643C18.0904 66.9643 18.1199 66.9864 18.142 67.0086C18.2158 67.075 18.2895 66.9864 18.3632 67.0159C18.4222 67.0381 18.4664 67.1045 18.5327 67.0823C18.5991 67.0602 18.6507 67.0528 18.7096 67.0971C18.7465 67.1266 18.7981 67.1414 18.835 67.1709C18.8866 67.2078 18.9234 67.1856 18.9676 67.1709C19.0045 67.1561 19.0266 67.1635 19.0561 67.1783C19.1224 67.2225 19.1962 67.252 19.2699 67.2889C19.3657 67.2299 19.4541 67.2668 19.5352 67.3184C19.6016 67.3627 19.6827 67.3922 19.749 67.4365C19.808 67.4734 19.8669 67.466 19.9259 67.4439C19.9849 67.4217 20.0365 67.4955 20.1028 67.4586C20.1397 67.4365 20.1913 67.4291 20.2355 67.4144V67.407Z" fill="#0A3D88"/>
<path id="Vector_10" d="M0.273814 60.147C0.207471 60.2798 0.1485 60.4052 0.0821576 60.538C0.0600435 60.5823 0.0526721 60.6266 0.0821576 60.6708C0.104272 60.7225 0.0600435 60.7594 0.0379293 60.8036C0.00844372 60.8553 -0.0136705 60.9069 0.0158151 60.9733C0.0379293 61.0176 -0.0210418 61.0545 0.00844372 61.1061C0.0231865 61.1356 0.0305579 61.1799 0.0453007 61.2094C0.0747863 61.2611 0.0231865 61.298 0.0379293 61.3422C0.0600435 61.4013 0.0747863 61.4529 0.0969004 61.5119C0.111643 61.5562 0.126386 61.6005 0.141129 61.6521C0.163243 61.7111 0.170614 61.7702 0.236957 61.7849C0.2517 61.8218 0.266442 61.8513 0.273814 61.8882C0.325414 61.903 0.347528 61.9399 0.362271 61.9915C0.369642 62.0284 0.428613 62.0284 0.435984 62.0579C0.450727 62.1465 0.51707 62.1686 0.583412 62.1981C0.598155 62.2055 0.605527 62.235 0.620269 62.2571C0.635012 62.2793 0.642384 62.3014 0.657126 62.3162C0.929868 62.449 1.19524 62.5818 1.46798 62.7146C1.48272 62.722 1.51221 62.7146 1.53432 62.7072C1.57118 62.6924 1.60066 62.7072 1.63752 62.722C1.66701 62.7367 1.69649 62.7662 1.73335 62.7515C1.79969 62.7146 1.85129 62.7441 1.90289 62.7736C1.92501 62.7884 1.94712 62.7957 1.96923 62.781C2.01346 62.7515 2.05769 62.7662 2.10192 62.781C2.1314 62.7884 2.16826 62.7662 2.20512 62.7515C2.26409 62.8105 2.3378 62.722 2.40415 62.7662C2.42626 62.781 2.44837 62.7662 2.47049 62.7662C2.70637 62.6851 2.94963 62.5965 3.18551 62.5154C3.25923 62.5154 3.25923 62.4268 3.3182 62.4121C3.36243 62.4047 3.41403 62.3826 3.45088 62.3678C3.46563 62.3604 3.48037 62.3309 3.48774 62.3162C3.50986 62.2498 3.55408 62.2202 3.61305 62.2055C3.64254 62.1981 3.64254 62.1465 3.6794 62.1317C3.70888 62.1169 3.74574 62.1169 3.76785 62.0801C3.82683 61.9841 3.82683 61.8366 3.97425 61.8144L4.22488 61.2906C4.16591 61.2021 4.21751 61.1283 4.26174 61.0619C4.29122 61.0176 4.29122 60.9733 4.26174 60.9291C4.26174 60.9217 4.26174 60.9069 4.26174 60.8922C4.27648 60.8479 4.30597 60.8036 4.31334 60.7594C4.31334 60.7298 4.29859 60.693 4.29122 60.6561C4.29122 60.6339 4.31334 60.6118 4.30597 60.5897C4.29859 60.5233 4.23225 60.4569 4.26174 60.3831C4.29122 60.3167 4.24699 60.265 4.23225 60.2134C4.21014 60.147 4.18802 60.0732 4.15854 60.0068C4.15854 59.9994 4.1438 59.992 4.12905 59.992C4.07008 59.9773 4.08482 59.9109 4.05534 59.874C4.03322 59.8518 3.98162 59.8518 3.98162 59.8076C3.98162 59.7559 3.9374 59.7264 3.89317 59.7043C3.8858 59.6453 3.84894 59.601 3.78997 59.5715C3.7826 59.5051 3.73837 59.4682 3.6794 59.446C3.63517 59.4313 3.56883 59.4165 3.56146 59.3723C3.53934 59.2837 3.473 59.269 3.41403 59.2321C3.34768 59.2026 3.28871 59.1583 3.215 59.1362C3.09706 59.0993 3.00123 58.9665 2.8538 59.0329C2.8022 59.0107 2.74323 58.9886 2.69163 58.9591C2.66952 58.9443 2.6474 58.9369 2.62529 58.9517C2.58106 58.9738 2.53683 58.9738 2.4926 58.9517C2.44837 58.9222 2.40415 58.9148 2.35992 58.9443C2.32306 58.9665 2.2862 58.9148 2.26409 58.9296C2.20512 58.9517 2.15352 58.9591 2.09455 58.9296C2.05032 58.9443 2.00609 58.9665 1.96186 58.9369C1.94712 58.9296 1.91763 58.9369 1.89552 58.9369C1.65226 59.0181 1.41638 59.1066 1.17312 59.1804C1.10678 59.2026 1.10678 59.2763 1.04044 59.2837C0.99621 59.2911 0.951982 59.3132 0.900382 59.328C0.893011 59.328 0.878268 59.3427 0.878268 59.3501C0.863525 59.4239 0.767697 59.3944 0.745583 59.4534C0.73084 59.4977 0.701355 59.5051 0.664498 59.5124C0.635012 59.5124 0.627641 59.5346 0.612898 59.5567C0.576041 59.6379 0.576041 59.6379 0.494956 59.6748C0.472841 59.6895 0.458099 59.6969 0.443356 59.719C0.377013 59.8592 0.303299 59.9994 0.236957 60.1396L0.273814 60.147Z" fill="#0A3D88"/>
<path id="Vector_11" d="M3.34771 66.2929C3.43617 66.3372 3.52463 66.3741 3.60571 66.4183C3.67206 66.4552 3.72366 66.4183 3.78263 66.4183C3.85634 66.4183 3.93005 66.4479 4.00377 66.4183C4.10697 66.3741 4.21754 66.3446 4.32074 66.3077C4.37234 66.1896 4.49028 66.1822 4.59348 66.1454C4.63034 66.1306 4.64508 66.1232 4.65982 66.0863C4.75565 65.8871 4.85148 65.6805 4.95468 65.4813C4.96942 65.4518 4.98416 65.4223 4.96205 65.3928C4.92519 65.3338 4.93994 65.2747 4.96205 65.2157C4.97679 65.1788 4.93994 65.1272 4.92519 65.0829C4.99891 64.987 4.91782 64.9058 4.89571 64.8173C4.80725 64.7951 4.78514 64.714 4.76302 64.6402C4.69668 64.6181 4.65982 64.5738 4.64508 64.5074C4.64508 64.4926 4.63771 64.4705 4.62297 64.4705C4.48291 64.4041 4.33548 64.3303 4.18805 64.2639C4.18068 64.2639 4.15857 64.2639 4.14383 64.2787C4.08485 64.3156 4.02588 64.2787 3.96691 64.2713C3.92268 64.2713 3.87845 64.2934 3.83423 64.2934C3.80474 64.2934 3.77526 64.2639 3.74577 64.2713C3.56149 64.3303 3.38457 64.3967 3.20029 64.4558C3.16343 64.5295 3.10446 64.5738 3.02337 64.5959C3.00126 64.5959 2.98652 64.6476 2.97915 64.6771C2.95703 64.7361 2.92017 64.7878 2.85383 64.8025C2.83909 64.8025 2.81697 64.8025 2.8096 64.8173C2.76537 64.9058 2.72115 64.987 2.68429 65.0755C2.68429 65.0829 2.69166 65.105 2.69903 65.1198C2.72115 65.2231 2.72115 65.2157 2.68429 65.2969C2.66218 65.3411 2.64006 65.3706 2.66218 65.4297C2.72115 65.592 2.78012 65.7617 2.83909 65.9314C2.84646 65.9609 2.87595 65.9757 2.90543 65.9904C2.97915 66.0273 2.94966 66.138 3.04549 66.1675C3.14869 66.2044 3.24452 66.2634 3.34771 66.3151V66.2929Z" fill="#0A3D88"/>
<path id="Vector_12" d="M67.3682 101.826L51.5271 60.3978C51.5124 60.3609 51.4976 60.324 51.4829 60.2871L51.4239 60.1321H51.4165C51.4165 60.1321 51.3871 60.0584 51.3649 60.0215C50.6868 58.7598 48.9987 58.1548 46.662 58.1548C42.6667 58.1548 36.7696 59.9256 30.7472 63.1867C21.2086 68.3515 14.9797 75.3165 16.8226 78.7326C16.8447 78.7695 16.8742 78.799 16.8963 78.8359L16.8742 78.8506L43.0279 115.019C43.2638 115.343 43.6029 115.594 43.9862 115.719C44.1705 115.778 44.9518 116.007 46.3082 116.007C48.5048 116.007 52.2348 115.417 57.4537 112.591C63.5056 109.315 67.0586 103.789 67.2061 103.553C67.5304 103.036 67.5967 102.402 67.3756 101.834L67.3682 101.826ZM35.2216 71.4724C29.4645 74.586 24.6952 75.8108 21.9678 75.9289C23.4937 73.8408 27.1131 70.4395 32.9586 67.2742C38.7156 64.1606 43.4849 62.9359 46.2123 62.8178C44.6865 64.9058 41.0671 68.3072 35.2216 71.4724ZM56.8493 90.3459C56.6723 90.427 56.4881 90.4639 56.3111 90.4639C55.8173 90.4639 55.3381 90.1762 55.117 89.6966L48.1289 74.2393C47.834 73.5826 48.1289 72.8079 48.7776 72.5128C49.4336 72.2176 50.2076 72.5128 50.5025 73.162L57.4906 88.6194C57.7854 89.276 57.4906 90.0507 56.8419 90.3459H56.8493ZM60.8814 99.2587C60.7045 99.3399 60.5202 99.3768 60.3433 99.3768C59.8494 99.3768 59.3703 99.089 59.1491 98.6094L58.1098 96.3074C57.8149 95.6508 58.1098 94.8761 58.7584 94.5809C59.4145 94.2858 60.1885 94.5809 60.4834 95.2302L61.5227 97.5322C61.8176 98.1889 61.5227 98.9636 60.874 99.2587H60.8814Z" fill="#EE4E25"/>
</g>
<path id="Vector_13" d="M134.212 73.1622L136.025 67.2449H136.011C137.131 63.5779 128.654 60.7742 126.944 60.2504C125.234 59.7265 116.639 57.2917 115.518 60.9587H115.503L113.697 66.8686C112.901 67.0678 112.127 67.3482 111.383 67.7392C109.024 68.9935 107.292 71.0889 106.51 73.6492L97.2224 103.981C97.2224 103.981 97.2224 103.988 97.2224 103.996C95.7997 108.755 109.135 112.997 110.66 113.462C114.405 114.606 118.054 115.306 120.944 115.425C121.231 115.439 121.511 115.439 121.776 115.439C124.836 115.439 126.627 114.665 127.091 113.13L136.379 82.7981C137.448 79.3082 136.497 75.6855 134.219 73.1548L134.212 73.1622ZM119.042 62.0359C120.317 61.94 122.794 62.1613 126.045 63.1647C129.303 64.1608 131.477 65.3708 132.48 66.1603C131.205 66.2488 128.728 66.0349 125.477 65.0314C122.219 64.0354 120.044 62.8253 119.042 62.0359ZM130.976 87.6825L124.415 109.109C124.29 109.522 123.914 109.78 123.509 109.78C123.42 109.78 123.324 109.765 123.229 109.736C122.727 109.581 122.447 109.05 122.595 108.548L129.155 87.1217C129.31 86.62 129.841 86.3397 130.342 86.4872C130.843 86.6422 131.123 87.1734 130.976 87.6751V87.6825ZM132.546 82.5546C132.428 82.9752 132.045 83.2408 131.632 83.2408C131.544 83.2408 131.455 83.2261 131.367 83.2039C130.865 83.0564 130.571 82.5325 130.718 82.0234C131.617 78.9024 129.258 76.807 129.155 76.7185C128.757 76.3717 128.713 75.7741 129.059 75.3757C129.399 74.9772 129.996 74.933 130.394 75.2724C130.534 75.3904 133.784 78.231 132.546 82.5473V82.5546Z" fill="#EE4E25"/>
<path id="Vector_14" d="M127.299 53.6168C128.464 52.93 128.258 50.4209 126.841 48.0126C125.423 45.6043 123.329 44.2087 122.165 44.8955C121 45.5824 121.206 48.0915 122.624 50.4998C124.042 52.9081 126.135 54.3036 127.299 53.6168Z" fill="#0A3D88"/>
<path id="Vector_15" d="M135.169 37.6416C135.87 34.9356 135.377 32.4669 134.069 32.1275C132.76 31.788 131.132 33.7065 130.431 36.4125C129.73 39.1184 130.223 41.5872 131.531 41.9266C132.84 42.266 134.468 40.3475 135.169 37.6416Z" fill="#0A3D88"/>
<path id="Vector_16" d="M139.102 52.4228C140.906 50.2892 141.533 47.8511 140.501 46.977C139.47 46.1029 137.171 47.1238 135.366 49.2573C133.562 51.3908 132.935 53.829 133.967 54.7031C134.998 55.5772 137.297 54.5563 139.102 52.4228Z" fill="#0A3D88"/>
</g>
</svg>
