<svg width="115" height="115" viewBox="0 0 115 115" fill="none" xmlns="http://www.w3.org/2000/svg">
<g id="Holistic Icon">
<path id="Vector" d="M113.703 61.2031C112.948 67.6336 111.33 73.9887 108.63 79.8826C107.297 82.7918 105.704 85.5669 103.902 88.2079C102.435 90.329 100.288 92.7772 98.4186 94.6803C98.7121 93.8419 103.675 81.0647 97.2868 69.6541C91.4348 59.1993 74.4405 53.9509 71.8833 39.7066C70.173 30.1824 74.8261 23.2991 80.938 20.6833C89.1544 17.1704 98.7205 21.0187 104.145 26.8791C104.178 26.9126 104.204 26.9461 104.237 26.9797C112.001 35.4391 115.052 49.6835 113.703 61.2115V61.2031Z" fill="#EE4E25"/>
<path id="Vector_2" d="M0.30935 52.8107C1.06391 46.3802 2.68202 40.0252 5.38166 34.1312C6.71471 31.222 8.30767 28.4469 10.1102 25.8059C11.5774 23.6848 13.7237 21.2367 15.5934 19.3335C15.2999 20.1719 10.3366 32.9491 16.7252 44.3597C22.5772 54.8145 39.5715 60.0629 42.1287 74.3073C43.839 83.8315 39.1859 90.7147 33.074 93.3305C24.8577 96.8434 15.2915 92.9952 9.86709 87.1348C9.83355 87.1012 9.8084 87.0677 9.77487 87.0342C2.0113 78.5831 -1.04047 64.3387 0.30935 52.8107Z" fill="#EE4E25"/>
<path id="Vector_3" d="M52.8098 113.703C46.3793 112.949 40.0243 111.331 34.1303 108.631C31.2211 107.298 28.446 105.705 25.805 103.903C23.6839 102.435 21.2357 100.289 19.3326 98.4194C20.171 98.7128 32.9482 103.676 44.3588 97.2875C54.8136 91.4355 60.062 74.4412 74.3064 71.8841C83.8306 70.1737 90.7138 74.8269 93.3296 80.9388C96.8425 89.1551 92.9943 98.7212 87.1339 104.146C87.1003 104.179 87.0668 104.204 87.0332 104.238C78.5738 112.001 64.3294 115.053 52.8014 113.703H52.8098Z" fill="#0A3D88"/>
<path id="Vector_4" d="M55.7693 5.50828C57.4042 5.50828 59.0223 5.6005 60.5566 5.78495C65.4612 6.36344 70.0557 7.44498 74.2644 9.02117C71.6905 9.6835 69.2424 10.656 66.9536 11.9388C61.7639 14.848 57.924 19.6353 54.2099 24.2632C49.5484 30.0817 45.1385 35.5732 38.7331 36.7218C37.7354 36.8979 36.7461 36.9901 35.8071 36.9901C31.1288 36.9901 27.3644 34.7181 25.7379 30.9201C23.2311 25.0597 26.2745 17.9501 30.5839 13.9426C30.6258 13.9006 30.6677 13.8671 30.7096 13.8252C36.3101 8.69419 45.9098 5.50828 55.7693 5.50828ZM55.7693 0C45.4654 0 34.1387 3.20268 26.9788 9.77572C26.9452 9.80926 26.9117 9.83441 26.8781 9.86795C21.0177 15.2924 17.1695 24.8585 20.6824 33.0748C22.9293 38.3232 28.3118 42.49 35.8155 42.49C37.0563 42.49 38.3558 42.3727 39.7056 42.1295C53.95 39.5808 59.1984 22.5865 69.6532 16.726C74.0716 14.2528 78.6995 13.4814 82.7574 13.4814C89.1711 13.4814 94.168 15.4181 94.6794 15.5942C92.7763 13.7246 90.3281 11.5783 88.207 10.1111C85.566 8.30853 82.7909 6.70719 79.8817 5.38252C73.9877 2.68287 67.6327 1.06477 61.2022 0.310207C59.4499 0.100608 57.6222 0 55.7693 0Z" fill="#0A3D88"/>
</g>
</svg>
