<svg width="110" height="87" viewBox="0 0 110 87" fill="none" xmlns="http://www.w3.org/2000/svg">
<g id="Group 59">
<path id="Vector" d="M71.3468 22.7348L8.83754 42.6358C6.56781 43.3584 5.32083 45.7816 6.0412 48.0443L17.0173 82.5203C17.7399 84.79 20.1631 86.037 22.4258 85.3167L84.9351 65.4156C87.2048 64.693 88.4518 62.2698 87.7314 60.0071L76.7576 25.5382C76.035 23.2685 73.6118 22.0215 71.3491 22.7418L71.3468 22.7348ZM42.7155 53.3856L39.182 60.0147L42.6408 66.6846C43.4844 68.3103 42.0973 70.1959 40.2885 69.879L32.8924 68.5694L27.6147 73.9139C26.329 75.216 24.1071 74.4794 23.8486 72.6675L22.8146 65.2256L16.099 61.8595C14.4631 61.0372 14.4784 58.6956 16.1246 57.892L22.881 54.6075L24.0038 47.1854C24.281 45.3737 26.5084 44.6646 27.782 45.9826L32.9891 51.3894L40.4008 50.1632C42.2086 49.8671 43.5749 51.7689 42.7155 53.3856ZM76.0901 59.1408L55.733 65.6218C54.3726 66.0549 52.9136 65.3006 52.4804 63.9402C52.0473 62.5797 52.8017 61.1207 54.1621 60.6876L74.5192 54.2066C75.8796 53.7734 77.3386 54.5278 77.7718 55.8882C78.2049 57.2486 77.4505 58.7076 76.0901 59.1408ZM72.7082 48.5181L52.3511 54.9992C50.9906 55.4323 49.5316 54.678 49.0985 53.3175C48.6654 51.9571 49.4198 50.4981 50.7802 50.065L71.1373 43.5839C72.4977 43.1508 73.9567 43.9051 74.3898 45.2656C74.823 46.626 74.0686 48.085 72.7082 48.5181ZM69.3263 37.8955L48.9692 44.3766C47.6087 44.8097 46.1497 44.0553 45.7166 42.6949C45.2835 41.3345 46.0378 39.8755 47.3983 39.4424L67.7554 32.9613C69.1158 32.5282 70.5748 33.2825 71.0079 34.6429C71.441 36.0034 70.6867 37.4624 69.3263 37.8955Z" fill="#EE4E25"/>
<path id="Vector_2" d="M97.4113 22.2078C94.1059 24.0908 92.049 26.8961 91.2546 30.6192C91.0347 31.6597 89.6303 31.8816 89.1024 30.9551C87.2194 27.6496 84.4141 25.5927 80.691 24.7983C79.6505 24.5784 79.4286 23.174 80.3551 22.6461C83.6606 20.7631 85.7175 17.9578 86.5119 14.2347C86.7318 13.1943 88.1362 12.9723 88.6641 13.8989C90.5471 17.2043 93.3524 19.2613 97.0755 20.0556C98.1159 20.2755 98.3379 21.6799 97.4113 22.2078Z" fill="#0A3D88"/>
<path id="Vector_3" d="M70.1165 15.6271C68.4803 16.5595 67.4626 17.9471 67.0656 19.7969C66.958 20.3125 66.2617 20.4177 66.0012 19.965C65.0688 18.3288 63.6812 17.311 61.8313 16.914C61.3158 16.8064 61.2106 16.1102 61.6633 15.8496C63.2995 14.9172 64.3172 13.5296 64.7142 11.6798C64.8218 11.1642 65.5181 11.059 65.7786 11.5117C66.711 13.1479 68.0986 14.1657 69.9485 14.5627C70.464 14.6703 70.5693 15.3665 70.1165 15.6271Z" fill="#0A3D88"/>
<path id="Vector_4" d="M80.9761 7.69815C79.7667 8.38597 79.0158 9.41689 78.726 10.7746C78.646 11.1572 78.1349 11.2345 77.9407 10.8926C77.2529 9.68314 76.222 8.93225 74.8643 8.6425C74.4817 8.56246 74.4044 8.0514 74.7462 7.85717C75.9557 7.16934 76.7066 6.13843 76.9963 4.78076C77.0764 4.39816 77.5874 4.32085 77.7817 4.66271C78.4695 5.87218 79.5004 6.62307 80.8581 6.91282C81.2407 6.99286 81.318 7.50391 80.9761 7.69815Z" fill="#0A3D88"/>
</g>
</svg>
