<svg width="36" height="35" viewBox="0 0 36 35" fill="none" xmlns="http://www.w3.org/2000/svg">
<g id="Group 35">
<g id="Group">
<path id="Vector" d="M3.45213 20.3779C3.45213 19.8036 3.81002 19.4529 4.3633 19.4529C5.03071 19.4529 5.30735 19.9306 5.51822 20.5542C5.87611 21.574 6.33266 22.7549 8.17047 22.7549C9.73357 22.7549 10.7415 21.9417 10.7415 20.7457C10.7415 19.2141 9.22866 18.689 7.53594 18.1943C5.68072 17.6674 3.71136 17.093 3.71136 14.9246C3.71136 12.9627 5.3383 11.814 7.92671 11.814C10.5151 11.814 11.9138 13.0253 11.9138 14.1417C11.9138 14.7161 11.5559 14.9397 11.0839 14.9397C10.4648 14.9397 10.2211 14.5417 10.0431 13.9996C9.75098 13.0423 9.37568 12.0377 7.71585 12.0377C6.20304 12.0377 5.32283 12.8509 5.32283 13.9825C5.32283 15.497 6.83564 16.0069 8.56124 16.5187C10.3836 17.0456 12.3375 17.6503 12.3375 19.7884C12.3375 21.9266 10.548 22.9786 7.92671 22.9786C5.1758 22.9786 3.4502 21.6385 3.4502 20.3798L3.45213 20.3779Z" fill="#EE4E25"/>
<path id="Vector_2" d="M13.8198 22.6261C13.8198 22.5313 13.8682 22.4669 13.9823 22.3702C14.1119 22.2754 14.259 22.1143 14.259 21.7485V13.0424C14.259 12.6747 14.1119 12.5154 13.9823 12.4207C13.8682 12.3259 13.8198 12.2614 13.8198 12.1648C13.8198 12.0378 13.9011 11.9733 14.0307 11.9733H19.2056C21.5986 11.9733 23.0302 13.0102 23.0302 14.701C23.0302 15.9615 22.2815 16.8372 20.0839 17.1405C22.5581 17.4267 23.5177 18.401 23.5177 19.8511C23.5177 21.7011 22.0049 22.8175 19.4822 22.8175H14.0307C13.9011 22.8175 13.8198 22.7531 13.8198 22.6261ZM16.2457 12.2292V17.0457H18.8341C20.3315 17.0457 21.0473 16.1207 21.0473 14.9095C21.0473 13.6982 20.2831 12.2311 18.7684 12.2311H16.2457V12.2292ZM16.2457 17.3168V21.7978C17.0099 22.3077 17.9056 22.5958 18.7529 22.5958C20.6894 22.5958 21.5367 21.4793 21.5367 20.1089C21.5367 18.7384 20.7551 17.3187 19.1282 17.3187H16.2477L16.2457 17.3168Z" fill="#EE4E25"/>
<path id="Vector_3" d="M24.8885 22.6261C24.8885 22.5313 24.9369 22.4669 25.051 22.3702C25.1806 22.2754 25.3277 22.1143 25.3277 21.7485V13.0424C25.3277 12.6747 25.1806 12.5154 25.051 12.4207C24.9369 12.3259 24.8885 12.2614 24.8885 12.1648C24.8885 12.0378 24.9698 11.9733 25.0994 11.9733H27.5563C27.6704 11.9733 27.7671 12.0378 27.7671 12.1648C27.7671 12.2596 27.7013 12.324 27.5891 12.4207C27.475 12.5173 27.3125 12.6766 27.3125 13.0424V22.0044C27.3125 22.3399 27.5408 22.5617 27.8813 22.5617H30.1427C31.2648 22.5617 31.7871 21.6044 32.0792 20.7761C32.2417 20.2984 32.3713 19.9629 32.5996 19.9629C32.7466 19.9629 32.8279 20.0747 32.8279 20.2188V22.2603C32.8279 22.6109 32.617 22.8175 32.2417 22.8175H25.0975C24.9678 22.8175 24.8866 22.7531 24.8866 22.6261H24.8885Z" fill="#EE4E25"/>
</g>
<path id="Vector_4" d="M18.1409 34.7744C8.5146 34.7744 0.683594 27.1014 0.683594 17.6693C0.683594 8.23724 8.5146 0.564209 18.1409 0.564209C27.7671 0.564209 35.5981 8.23724 35.5981 17.6693C35.5981 27.1014 27.7671 34.7744 18.1409 34.7744ZM18.1409 1.51196C9.04853 1.51196 1.65086 8.7604 1.65086 17.6693C1.65086 26.5782 9.04853 33.8266 18.1409 33.8266C27.2332 33.8266 34.6309 26.5782 34.6309 17.6693C34.6309 8.7604 27.2332 1.51196 18.1409 1.51196Z" fill="#EE4E25"/>
</g>
</svg>
