<svg width="202" height="38" viewBox="0 0 202 38" fill="none" xmlns="http://www.w3.org/2000/svg">
<g clip-path="url(#clip0_8153_838)">
<path d="M0.00294176 14.0307C0.00294176 13.0885 0.576585 12.5143 1.465 12.5143C2.5358 12.5143 2.98001 13.2975 3.31831 14.3163C3.89195 15.9888 4.62445 17.9234 7.5721 17.9234C10.0785 17.9234 11.6964 16.5895 11.6964 14.6314C11.6964 12.1227 9.26949 11.2599 6.55425 10.4502C3.58013 9.58741 0.420672 8.6481 0.420672 5.09405C0.420672 1.88156 3.03002 0 7.18084 0C11.3317 0 13.5762 1.98462 13.5762 3.81318C13.5762 4.75543 13.0026 5.12055 12.2436 5.12055C11.2522 5.12055 10.861 4.46686 10.5727 3.58056C10.102 2.01406 9.50189 0.368067 6.8396 0.368067C4.41264 0.368067 3.00354 1.70194 3.00354 3.55406C3.00354 6.0363 5.43049 6.87255 8.19869 7.7088C11.1228 8.57155 14.2528 9.56386 14.2528 13.0649C14.2528 16.566 11.3817 18.2915 7.1779 18.2915C2.76526 18.2915 0 16.0948 0 14.0337L0.00294176 14.0307Z" fill="#0A3D88"/>
<path d="M18.1448 9.14279C18.1448 3.63061 21.6426 0 26.9672 0C32.2918 0 35.7631 3.63061 35.7631 9.14279C35.7631 14.655 32.2388 18.2885 26.9672 18.2885C21.6955 18.2885 18.1448 14.6579 18.1448 9.14279ZM32.736 10.8418C32.736 5.85079 30.1766 0.444625 26.0288 0.444625C23.1841 0.444625 21.1749 3.23899 21.1749 7.44673C21.1749 12.6733 23.9166 17.8439 27.9085 17.8439C30.7532 17.8439 32.7389 15.0495 32.7389 10.8418H32.736Z" fill="#0A3D88"/>
<path d="M40.8817 11.784V2.01111C40.8817 1.41042 40.6463 1.14836 40.4375 0.9923C40.2551 0.836239 40.1757 0.730236 40.1757 0.574175C40.1757 0.365113 40.3051 0.262054 40.514 0.262054H44.4559C44.6383 0.262054 44.7942 0.368058 44.7942 0.574175C44.7942 0.730236 44.6883 0.836239 44.5059 0.9923C44.3235 1.14836 44.0617 1.41042 44.0617 2.01111V11.9401C44.0617 14.97 46.1504 16.9576 49.2834 16.9576C52.4163 16.9576 54.555 14.9465 54.555 11.89V4.02223C54.555 2.14067 54.1108 1.59299 53.2224 1.14836C52.7782 0.912797 52.6223 0.783237 52.6223 0.574175C52.6223 0.365113 52.7517 0.262054 52.9606 0.262054H55.7288C55.9111 0.262054 56.0671 0.368058 56.0671 0.574175C56.0671 0.756737 55.9112 0.886296 55.6229 1.0983C55.2581 1.36037 55.0492 1.75199 55.0492 3.37148V12.1491C55.0492 15.7798 52.281 18.1589 48.1067 18.1589C43.9323 18.1589 40.8758 15.6237 40.8758 11.784H40.8817Z" fill="#0A3D88"/>
<path d="M65.1042 17.7143C65.1042 17.5583 65.1836 17.4523 65.3925 17.2962C65.5749 17.1402 65.8367 16.8781 65.8367 16.2774V0.680193H63.9039C62.1301 0.680193 61.424 2.22019 60.9798 3.58056C60.718 4.39031 60.5091 4.93799 60.1179 4.93799C59.8826 4.93799 59.7531 4.78193 59.7531 4.51987V1.17488C59.7531 0.600691 60.1179 0.259125 60.718 0.259125H74.1089C74.6826 0.259125 75.0738 0.597746 75.0738 1.17488V4.51987C75.0738 4.78193 74.9179 4.93799 74.709 4.93799C74.3178 4.93799 74.1089 4.39031 73.8471 3.58056C73.3764 2.22019 72.6998 0.680193 70.923 0.680193H69.0167V16.2774C69.0167 16.8781 69.2521 17.1402 69.4609 17.2962C69.6433 17.4523 69.7227 17.5583 69.7227 17.7143C69.7227 17.9234 69.5933 18.0265 69.3844 18.0265H65.4425C65.2601 18.0265 65.1042 17.9234 65.1042 17.7143Z" fill="#0A3D88"/>
<path d="M79.3041 17.7143C79.3041 17.5583 79.3835 17.4523 79.5659 17.2962C79.7748 17.1401 80.0101 16.8781 80.0101 16.2774V2.01111C80.0101 1.41042 79.7748 1.14836 79.5659 0.9923C79.3835 0.836239 79.3041 0.730236 79.3041 0.574175C79.3041 0.365113 79.4335 0.262054 79.6424 0.262054H83.5843C83.7667 0.262054 83.9226 0.368058 83.9226 0.574175C83.9226 0.730236 83.8197 0.836239 83.6344 0.9923C83.452 1.14836 83.1901 1.41042 83.1901 2.01111V8.75115H91.6742V2.01111C91.6742 1.41042 91.4124 1.14836 91.23 0.9923C91.0211 0.836239 90.9417 0.730236 90.9417 0.574175C90.9417 0.365113 91.0976 0.262054 91.28 0.262054H95.222C95.4308 0.262054 95.5603 0.368058 95.5603 0.574175C95.5603 0.730236 95.4808 0.836239 95.2984 0.9923C95.0896 1.14836 94.8542 1.41042 94.8542 2.01111V16.2774C94.8542 16.8781 95.0896 17.1401 95.2984 17.2962C95.4808 17.4523 95.5603 17.5583 95.5603 17.7143C95.5603 17.9234 95.4308 18.0264 95.222 18.0264H91.28C91.0976 18.0264 90.9417 17.9234 90.9417 17.7143C90.9417 17.5583 91.0211 17.4523 91.23 17.2962C91.4124 17.1401 91.6742 16.8781 91.6742 16.2774V9.24878H83.1901V16.2774C83.1901 16.8781 83.452 17.1401 83.6344 17.2962C83.8167 17.4523 83.9226 17.5583 83.9226 17.7143C83.9226 17.9234 83.7667 18.0264 83.5843 18.0264H79.6424C79.4335 18.0264 79.3041 17.9234 79.3041 17.7143Z" fill="#0A3D88"/>
<path d="M108.41 17.7143C108.41 17.5583 108.489 17.4523 108.672 17.2962C108.881 17.1401 109.116 16.8781 109.116 16.2774V2.01111C109.116 1.41042 108.881 1.14836 108.672 0.9923C108.489 0.836239 108.41 0.730236 108.41 0.574175C108.41 0.365113 108.539 0.262054 108.748 0.262054H117.05C120.886 0.262054 123.183 1.96105 123.183 4.72892C123.183 6.79304 121.983 8.22997 118.459 8.72465C122.427 9.19578 123.966 10.7888 123.966 13.165C123.966 16.1949 121.539 18.0235 117.491 18.0235H108.748C108.539 18.0235 108.41 17.9204 108.41 17.7114V17.7143ZM112.299 0.680179V8.57154H116.45C118.85 8.57154 120 7.0551 120 5.07048C120 3.08587 118.774 0.680179 116.347 0.680179H112.302H112.299ZM112.299 9.01322V16.3539C113.526 17.1902 114.961 17.6613 116.317 17.6613C119.424 17.6613 120.78 15.8328 120.78 13.5861C120.78 11.3394 119.527 9.01322 116.917 9.01322H112.296H112.299Z" fill="#0A3D88"/>
<path d="M128.246 17.7143C128.246 17.5583 128.326 17.4523 128.508 17.2962C128.717 17.1401 128.952 16.8781 128.952 16.2774V2.01111C128.952 1.41042 128.717 1.14836 128.508 0.9923C128.326 0.836239 128.246 0.730236 128.246 0.574175C128.246 0.365113 128.376 0.262054 128.585 0.262054H140.643C141.243 0.262054 141.584 0.600676 141.584 1.17781V4.34024C141.584 4.5758 141.455 4.75836 141.246 4.75836C140.881 4.75836 140.672 4.23423 140.437 3.47749C140.046 2.17011 139.313 0.683123 137.46 0.683123H132.135V8.57448H136.365C137.486 8.57448 138.036 7.89429 138.348 7.16405C138.557 6.71942 138.687 6.4073 139.001 6.4073C139.21 6.4073 139.34 6.58986 139.34 6.85193V10.7181C139.34 10.9802 139.21 11.1627 139.001 11.1627C138.689 11.1627 138.557 10.8506 138.348 10.406C138.036 9.67574 137.486 8.99555 136.365 8.99555H132.135V16.7014C132.135 17.2491 132.5 17.6172 133.05 17.6172H137.672C139.498 17.6172 140.307 16.0772 140.778 14.7168C141.04 13.8805 141.249 13.3564 141.64 13.3564C141.849 13.3564 141.978 13.539 141.978 13.7745V17.1195C141.978 17.6937 141.64 18.0353 141.04 18.0353H128.59C128.382 18.0353 128.252 17.9322 128.252 17.7232L128.246 17.7143Z" fill="#0A3D88"/>
<path d="M145.111 17.7143C145.111 17.5053 145.241 17.3757 145.476 17.2432C145.711 17.0607 146.156 16.6955 146.391 16.1449L152.498 0.85981C152.654 0.468187 152.969 0.259125 153.36 0.259125H154.431C154.822 0.259125 155.084 0.468187 155.24 0.85981L161.426 16.195C161.609 16.7426 162.026 17.0577 162.262 17.2403C162.497 17.3728 162.6 17.5023 162.6 17.6849C162.6 17.894 162.444 18.0235 162.235 18.0235H157.667C157.458 18.0235 157.328 17.9205 157.328 17.6849C157.328 17.4758 157.458 17.3728 157.72 17.1873C157.955 17.0047 158.217 16.6896 157.982 16.0654L156.546 12.2493H148.741L147.488 15.6208C147.15 16.5365 147.75 16.9016 148.271 17.2138C148.533 17.3698 148.689 17.4758 148.689 17.6849C148.689 17.9205 148.533 18.0235 148.35 18.0235H145.426C145.244 18.0235 145.114 17.9205 145.114 17.7114L145.111 17.7143ZM156.361 11.7575L152.601 1.77851L148.894 11.7575H156.361Z" fill="#0A3D88"/>
<path d="M164.818 9.14279C164.818 3.63061 168.289 0 173.588 0C177.894 0 180.242 2.37624 180.242 4.3108C180.242 5.25011 179.695 5.85079 178.624 5.85079C177.318 5.85079 176.771 4.96154 176.429 3.89268C175.856 2.11712 175.229 0.418124 172.905 0.418124C169.799 0.418124 167.842 3.29199 167.842 7.52329C167.842 11.7546 170.01 16.3805 174.629 16.3805C177.891 16.3805 179.327 14.2133 179.824 13.4006C179.954 13.218 180.033 13.1385 180.162 13.1385C180.292 13.1385 180.345 13.2946 180.345 13.5566C180.345 15.2821 177.944 18.2856 173.505 18.2856C168.31 18.2856 164.812 14.655 164.812 9.13984L164.818 9.14279Z" fill="#0A3D88"/>
<path d="M184.866 17.7143C184.866 17.5583 184.946 17.4523 185.128 17.2962C185.337 17.1401 185.572 16.8781 185.572 16.2774V2.01111C185.572 1.41042 185.337 1.14836 185.128 0.9923C184.946 0.836239 184.866 0.730236 184.866 0.574175C184.866 0.365113 184.996 0.262054 185.205 0.262054H189.147C189.329 0.262054 189.485 0.368058 189.485 0.574175C189.485 0.730236 189.382 0.836239 189.197 0.9923C189.014 1.14836 188.752 1.41042 188.752 2.01111V8.75115H197.236V2.01111C197.236 1.41042 196.975 1.14836 196.792 0.9923C196.583 0.836239 196.504 0.730236 196.504 0.574175C196.504 0.365113 196.66 0.262054 196.842 0.262054H200.784C200.993 0.262054 201.123 0.368058 201.123 0.574175C201.123 0.730236 201.043 0.836239 200.861 0.9923C200.652 1.14836 200.417 1.41042 200.417 2.01111V16.2774C200.417 16.8781 200.652 17.1401 200.861 17.2962C201.043 17.4523 201.123 17.5583 201.123 17.7143C201.123 17.9234 200.993 18.0264 200.784 18.0264H196.842C196.66 18.0264 196.504 17.9234 196.504 17.7143C196.504 17.5583 196.583 17.4523 196.792 17.2962C196.975 17.1401 197.236 16.8781 197.236 16.2774V9.24878H188.752V16.2774C188.752 16.8781 189.014 17.1401 189.197 17.2962C189.379 17.4523 189.485 17.5583 189.485 17.7143C189.485 17.9234 189.329 18.0264 189.147 18.0264H185.205C184.996 18.0264 184.866 17.9234 184.866 17.7143Z" fill="#0A3D88"/>
<path d="M52.2546 23.9803V34.56H55.8818V36.3385H50.366V23.9803H52.2546Z" fill="#EE4E25"/>
<path d="M68.802 23.9803V36.3385H66.9134V23.9803H68.802Z" fill="#EE4E25"/>
<path d="M81.6487 23.9803L85.0906 32.596L88.5354 23.9803H90.5711L85.0906 37.1365L79.61 23.9803H81.6458H81.6487Z" fill="#EE4E25"/>
<path d="M104.009 23.9803V36.3385H102.12V23.9803H104.009Z" fill="#EE4E25"/>
<path d="M116.223 36.3385V23.147L125.184 32.5401V23.9803H127.072V37.0982L118.112 27.7051V36.3385H116.223Z" fill="#EE4E25"/>
<path d="M145.673 29.9106H150.763V30.0019C150.763 32.1131 150.133 33.8386 148.93 35.0047C147.653 36.2473 146.135 36.58 144.726 36.58C142.932 36.58 141.652 36.0617 140.522 34.8928C139.319 33.6502 138.69 32.0012 138.69 30.2227C138.69 28.297 139.466 26.6275 140.484 25.6086C141.54 24.5339 143.223 23.7565 145.129 23.7565C146.241 23.7565 147.388 23.998 148.35 24.5339C149.368 25.1081 149.998 25.8324 150.351 26.386L148.85 27.4431C148.48 26.9249 147.924 26.3683 147.332 26.0356C146.647 25.6293 145.906 25.4997 145.147 25.4997C143.538 25.4997 142.499 26.1681 141.89 26.7776C141.075 27.5933 140.575 28.9095 140.575 30.2433C140.575 31.483 141.037 32.7256 141.852 33.5972C142.702 34.5041 143.758 34.8398 144.944 34.8398C146.017 34.8398 146.906 34.5247 147.703 33.7473C148.389 33.0789 148.665 32.3575 148.742 31.6538H145.667V29.9136L145.673 29.9106Z" fill="#EE4E25"/>
</g>
<defs>
<clipPath id="clip0_8153_838">
<rect width="201.122" height="37.1365" fill="white"/>
</clipPath>
</defs>
</svg>
