<svg width="58" height="7" viewBox="0 0 58 7" fill="none" xmlns="http://www.w3.org/2000/svg">
<path d="M57.1288 1.90748C57.2303 1.90748 57.3126 1.8252 57.3126 1.7237C57.3126 1.70562 57.31 1.68815 57.3051 1.67165V1.18115C57.3051 1.07965 57.2228 0.997369 57.1213 0.997369C53.4579 0.997369 51.5888 2.21679 49.8122 3.37585L49.8085 3.37826L49.8084 3.37836C48.919 3.9598 48.0693 4.51366 47.0169 4.92489C45.9673 5.33501 44.7096 5.60539 43.0107 5.60539C41.3117 5.60539 40.0541 5.33501 39.0045 4.92489C37.9521 4.51366 37.1023 3.9598 36.2129 3.37836C34.435 2.21472 32.5659 0.997369 28.9 0.997369C25.2365 0.997369 23.3675 2.21679 21.5909 3.37585L21.5872 3.37826L21.5871 3.37836C20.6977 3.9598 19.848 4.51366 18.7956 4.92489C17.746 5.33501 16.4883 5.60539 14.7894 5.60539C13.0904 5.60539 11.8327 5.33501 10.7832 4.92489C9.73075 4.51366 8.88104 3.9598 7.99164 3.37836C6.2137 2.21475 4.34835 0.997369 0.678711 0.997369C0.57721 0.997369 0.494927 1.07965 0.494927 1.18115V1.7237C0.494927 1.8252 0.57721 1.90748 0.678711 1.90748C2.37952 1.90748 3.63722 2.17787 4.68726 2.58799C5.73982 2.9991 6.59019 3.5527 7.48315 4.13402L7.48384 4.13447C7.4839 4.13451 7.48397 4.13455 7.48403 4.13459C9.26198 5.2982 11.131 6.5155 14.7968 6.5155C18.4603 6.5155 20.3294 5.29608 22.1059 4.13702L22.1096 4.13461L22.1098 4.13452C22.9992 3.55307 23.8489 2.99921 24.9013 2.58798C25.9509 2.17786 27.2086 1.90748 28.9075 1.90748C30.6064 1.90748 31.8641 2.17786 32.9137 2.58798C33.9661 2.99921 34.8158 3.55307 35.7052 4.13452C37.4832 5.29815 39.3523 6.5155 43.0182 6.5155C46.684 6.5155 48.5531 5.29815 50.3311 4.13452C51.2205 3.55303 52.0693 2.99919 53.1212 2.58797C54.1703 2.17787 55.428 1.90748 57.1288 1.90748Z" fill="#0A3D88" stroke="#0A3D88" stroke-width="0.367567" stroke-linejoin="round"/>
</svg>
