<svg width="135" height="8" viewBox="0 0 135 8" fill="none" xmlns="http://www.w3.org/2000/svg">
<path d="M112.508 8C106.743 8 103.828 6.14607 101.009 4.34831C98.1769 2.54494 95.4943 0.842697 90.004 0.842697C84.5136 0.842697 81.837 2.54494 79.0053 4.34831C76.1856 6.14607 73.2646 8 67.506 8C61.7473 8 58.8263 6.14607 56.0066 4.34831C53.1749 2.54494 50.4924 0.842697 45.0079 0.842697C39.5235 0.842697 36.8409 2.54494 34.0093 4.34831C31.1896 6.14607 28.2686 8 22.5099 8C16.7513 8 13.8303 6.14607 11.0106 4.34831C8.167 2.54494 5.49037 0.842697 0 0.842697V0C5.76459 0 8.67968 1.85393 11.4994 3.65169C14.331 5.45506 17.0136 7.1573 22.498 7.1573C27.9824 7.1573 30.665 5.45506 33.4966 3.65169C36.3163 1.85955 39.2374 0 44.996 0C50.7547 0 53.6757 1.85393 56.4954 3.65169C59.327 5.45506 62.0096 7.1573 67.494 7.1573C72.9784 7.1573 75.661 5.45506 78.4927 3.65169C81.3124 1.85955 84.2334 0 89.9921 0C95.7507 0 98.6717 1.85393 101.497 3.65169C104.329 5.45506 107.012 7.1573 112.502 7.1573C117.992 7.1573 120.669 5.45506 123.501 3.65169C126.32 1.85955 129.241 0 135 0V0.842697C129.51 0.842697 126.833 2.54494 124.001 4.34831C121.182 6.14607 118.261 8 112.502 8H112.508Z" fill="#EE4E25"/>
</svg>
