<svg width="114" height="30" viewBox="0 0 114 30" fill="none" xmlns="http://www.w3.org/2000/svg">
<path d="M92.8749 29.0172C87.4702 29.0172 84.7371 27.1964 82.0878 25.4308C79.4274 23.6597 76.9179 21.9879 71.7703 21.9879C66.6227 21.9879 64.1132 23.6597 61.4528 25.4308C58.8091 27.1909 56.0704 29.0172 50.6657 29.0172C45.261 29.0172 42.528 27.1964 39.8787 25.4308C37.2183 23.6597 34.7088 21.9879 29.5612 21.9879C24.4136 21.9879 21.9041 23.6597 19.2436 25.4308C16.5999 27.1909 13.8613 29.0172 8.4566 29.0172C3.05191 29.0172 0.318817 27.1964 -2.33041 25.4308C-4.98526 23.6597 -7.5004 21.9879 -12.648 21.9879C-17.7956 21.9879 -20.3051 23.6597 -22.9599 25.4308C-25.6036 27.1909 -28.3423 29.0172 -33.7414 29.0172C-39.1405 29.0172 -41.8792 27.1964 -44.5228 25.4308C-47.1832 23.6597 -49.6927 21.9879 -54.8403 21.9879C-59.9879 21.9879 -62.4975 23.6597 -65.1579 25.4308C-67.8016 27.1909 -70.5402 29.0172 -75.9449 29.0172C-81.3496 29.0172 -84.0827 27.1964 -86.7319 25.4308C-89.3868 23.6597 -91.9019 21.9879 -97.0495 21.9879C-102.197 21.9879 -104.707 23.6597 -107.367 25.4308C-110.011 27.1909 -112.749 29.0172 -118.148 29.0172C-123.548 29.0172 -126.286 27.1964 -128.93 25.4308C-131.585 23.6597 -134.1 21.9879 -139.242 21.9879C-144.384 21.9879 -146.899 23.6597 -149.554 25.4308C-152.197 27.1909 -154.936 29.0172 -160.335 29.0172C-165.734 29.0172 -168.473 27.1964 -171.117 25.4308C-173.772 23.6597 -176.287 21.9879 -181.434 21.9879C-186.582 21.9879 -189.091 23.6597 -191.746 25.4308C-194.39 27.1964 -197.129 29.0172 -202.528 29.0172C-207.927 29.0172 -210.665 27.1964 -213.309 25.4308C-215.964 23.6597 -218.479 21.9879 -223.627 21.9879C-228.774 21.9879 -231.284 23.6597 -233.939 25.4308C-236.582 27.1964 -239.321 29.0172 -244.72 29.0172C-250.119 29.0172 -252.858 27.1964 -255.501 25.4308C-258.156 23.6597 -260.671 21.9879 -265.813 21.9879C-270.955 21.9879 -273.471 23.6597 -276.125 25.4308C-278.769 27.1909 -281.508 29.0172 -286.907 29.0172C-292.306 29.0172 -295.045 27.1964 -297.688 25.4308C-300.343 23.6597 -302.858 21.9879 -308 21.9879V21.1603C-302.595 21.1603 -299.862 22.981 -297.219 24.7466C-294.564 26.5177 -292.049 28.1895 -286.907 28.1895C-281.765 28.1895 -279.25 26.5177 -276.595 24.7466C-273.951 22.9866 -271.213 21.1603 -265.813 21.1603C-260.414 21.1603 -257.676 22.981 -255.032 24.7466C-252.377 26.5177 -249.862 28.1895 -244.72 28.1895C-239.578 28.1895 -237.063 26.5177 -234.408 24.7466C-231.764 22.9866 -229.026 21.1603 -223.627 21.1603C-218.228 21.1603 -215.489 22.981 -212.84 24.7466C-210.185 26.5177 -207.67 28.1895 -202.522 28.1895C-197.374 28.1895 -194.865 26.5177 -192.21 24.7466C-189.566 22.9866 -186.828 21.1603 -181.429 21.1603C-176.03 21.1603 -173.291 22.981 -170.647 24.7466C-167.992 26.5177 -165.477 28.1895 -160.33 28.1895C-155.182 28.1895 -152.673 26.5177 -150.018 24.7466C-147.374 22.9866 -144.635 21.1603 -139.236 21.1603C-133.837 21.1603 -131.099 22.981 -128.455 24.7466C-125.8 26.5177 -123.285 28.1895 -118.143 28.1895C-113.001 28.1895 -110.486 26.5177 -107.825 24.7466C-105.182 22.9866 -102.443 21.1603 -97.0439 21.1603C-91.6448 21.1603 -88.9061 22.981 -86.2625 24.7466C-83.6076 26.5177 -81.0925 28.1895 -75.9449 28.1895C-70.7973 28.1895 -68.2878 26.5177 -65.6274 24.7466C-62.9837 22.9866 -60.245 21.1603 -54.8403 21.1603C-49.4357 21.1603 -46.7026 22.981 -44.0533 24.7466C-41.3985 26.5177 -38.8834 28.1895 -33.7358 28.1895C-28.5882 28.1895 -26.0787 26.5177 -23.4238 24.7466C-20.7802 22.981 -18.0415 21.1603 -12.6424 21.1603C-7.24329 21.1603 -4.50461 22.981 -1.86096 24.7466C0.799469 26.5177 3.30899 28.1895 8.4566 28.1895C13.6042 28.1895 16.1137 26.5177 18.7741 24.7466C21.4178 22.9866 24.1565 21.1603 29.5612 21.1603C34.9659 21.1603 37.6989 22.981 40.3482 24.7466C43.0086 26.5177 45.5181 28.1895 50.6657 28.1895C55.8133 28.1895 58.3228 26.5177 60.9833 24.7466C63.6269 22.9866 66.3656 21.1603 71.7703 21.1603C77.175 21.1603 79.9081 22.981 82.5573 24.7466C85.2178 26.5177 87.7273 28.1895 92.8749 28.1895C98.0225 28.1895 100.532 26.5177 103.192 24.7466C105.836 22.9866 108.575 21.1603 113.979 21.1603V21.9879C108.832 21.9879 106.322 23.6597 103.662 25.4308C101.018 27.1909 98.2796 29.0172 92.8749 29.0172Z" fill="#0A3D88"/>
<path d="M92.8749 18.7989C87.4702 18.7989 84.7371 16.9781 82.0878 15.2125C79.4274 13.4414 76.9179 11.7696 71.7703 11.7696C66.6227 11.7696 64.1132 13.4414 61.4528 15.2125C58.8091 16.9726 56.0704 18.7989 50.6657 18.7989C45.261 18.7989 42.528 16.9781 39.8787 15.2125C37.2183 13.4414 34.7088 11.7696 29.5612 11.7696C24.4136 11.7696 21.9041 13.4414 19.2436 15.2125C16.5999 16.9726 13.8613 18.7989 8.4566 18.7989C3.05191 18.7989 0.318817 16.9781 -2.33041 15.2125C-4.98526 13.4414 -7.5004 11.7696 -12.648 11.7696C-17.7956 11.7696 -20.3051 13.4414 -22.9599 15.2125C-25.6036 16.9726 -28.3423 18.7989 -33.7414 18.7989C-39.1405 18.7989 -41.8792 16.9781 -44.5228 15.2125C-47.1776 13.4414 -49.6927 11.7696 -54.8403 11.7696C-59.9879 11.7696 -62.4975 13.4414 -65.1579 15.2125C-67.8016 16.9726 -70.5402 18.7989 -75.9449 18.7989C-81.3496 18.7989 -84.0827 16.9781 -86.7319 15.2125C-89.3868 13.4414 -91.9019 11.7696 -97.0495 11.7696C-102.197 11.7696 -104.707 13.4414 -107.367 15.2125C-110.011 16.9726 -112.749 18.7989 -118.148 18.7989C-123.548 18.7989 -126.286 16.9781 -128.93 15.2125C-131.585 13.4414 -134.1 11.7696 -139.242 11.7696C-144.384 11.7696 -146.899 13.4414 -149.554 15.2125C-152.197 16.9726 -154.936 18.7989 -160.335 18.7989C-165.734 18.7989 -168.473 16.9781 -171.117 15.2125C-173.772 13.4414 -176.287 11.7696 -181.434 11.7696C-186.582 11.7696 -189.091 13.4414 -191.746 15.2125C-194.39 16.9726 -197.129 18.7989 -202.528 18.7989C-207.927 18.7989 -210.665 16.9781 -213.309 15.2125C-215.964 13.4414 -218.479 11.7696 -223.627 11.7696C-228.774 11.7696 -231.284 13.4414 -233.939 15.2125C-236.582 16.9726 -239.321 18.7989 -244.72 18.7989C-250.119 18.7989 -252.858 16.9781 -255.501 15.2125C-258.156 13.4414 -260.671 11.7696 -265.813 11.7696C-270.955 11.7696 -273.471 13.4414 -276.125 15.2125C-278.769 16.9726 -281.508 18.7989 -286.907 18.7989C-292.306 18.7989 -295.045 16.9781 -297.688 15.2125C-300.343 13.4414 -302.858 11.7696 -308 11.7696V10.942C-302.595 10.942 -299.862 12.7628 -297.219 14.5284C-294.564 16.2995 -292.049 17.9713 -286.907 17.9713C-281.765 17.9713 -279.25 16.2995 -276.595 14.5284C-273.951 12.7683 -271.213 10.942 -265.813 10.942C-260.414 10.942 -257.676 12.7628 -255.032 14.5284C-252.377 16.2995 -249.862 17.9713 -244.72 17.9713C-239.578 17.9713 -237.063 16.2995 -234.408 14.5284C-231.764 12.7683 -229.026 10.942 -223.627 10.942C-218.228 10.942 -215.489 12.7628 -212.84 14.5284C-210.185 16.2995 -207.67 17.9713 -202.522 17.9713C-197.374 17.9713 -194.865 16.2995 -192.21 14.5284C-189.566 12.7683 -186.828 10.942 -181.429 10.942C-176.03 10.942 -173.291 12.7628 -170.647 14.5284C-167.992 16.2995 -165.477 17.9713 -160.33 17.9713C-155.182 17.9713 -152.673 16.2995 -150.018 14.5284C-147.374 12.7683 -144.635 10.942 -139.236 10.942C-133.837 10.942 -131.099 12.7628 -128.455 14.5284C-125.8 16.2995 -123.285 17.9713 -118.143 17.9713C-113.001 17.9713 -110.486 16.2995 -107.825 14.5284C-105.182 12.7683 -102.443 10.942 -97.0439 10.942C-91.6448 10.942 -88.9061 12.7628 -86.2625 14.5284C-83.6076 16.2995 -81.0925 17.9713 -75.9449 17.9713C-70.7973 17.9713 -68.2878 16.2995 -65.6274 14.5284C-62.9837 12.7683 -60.245 10.942 -54.8403 10.942C-49.4357 10.942 -46.7026 12.7628 -44.0533 14.5284C-41.3985 16.2995 -38.8834 17.9713 -33.7358 17.9713C-28.5882 17.9713 -26.0787 16.2995 -23.4238 14.5284C-20.7802 12.7683 -18.0415 10.942 -12.6424 10.942C-7.24329 10.942 -4.50461 12.7628 -1.86096 14.5284C0.799469 16.2995 3.30899 17.9713 8.4566 17.9713C13.6042 17.9713 16.1137 16.2995 18.7741 14.5284C21.4178 12.7683 24.1565 10.942 29.5612 10.942C34.9659 10.942 37.6989 12.7628 40.3482 14.5284C43.0086 16.2995 45.5181 17.9713 50.6657 17.9713C55.8133 17.9713 58.3228 16.2995 60.9833 14.5284C63.6269 12.7683 66.3656 10.942 71.7703 10.942C77.175 10.942 79.9081 12.7628 82.5573 14.5284C85.2178 16.2995 87.7273 17.9713 92.8749 17.9713C98.0225 17.9713 100.532 16.2995 103.192 14.5284C105.836 12.7683 108.575 10.942 113.979 10.942V11.7696C108.832 11.7696 106.322 13.4414 103.662 15.2125C101.018 16.9726 98.2796 18.7989 92.8749 18.7989Z" fill="#0A3D88"/>
<path d="M92.8751 8.57478C87.4704 8.57478 84.7373 6.75402 82.088 4.98842C79.4276 3.21731 76.9181 1.54552 71.7705 1.54552C66.6229 1.54552 64.1134 3.21731 61.4529 4.98842C58.8093 6.7485 56.0706 8.57478 50.6659 8.57478C45.2612 8.57478 42.5281 6.75402 39.8789 4.98842C37.2184 3.21731 34.709 1.54552 29.5613 1.54552C24.4138 1.54552 21.9042 3.21731 19.2438 4.98842C16.6001 6.7485 13.8615 8.57478 8.45679 8.57478C3.05209 8.57478 0.319 6.75402 -2.33023 4.98842C-4.98508 3.21731 -7.50021 1.54552 -12.6478 1.54552C-17.7954 1.54552 -20.3049 3.21731 -22.9597 4.98842C-25.6034 6.7485 -28.3421 8.57478 -33.7412 8.57478C-39.1403 8.57478 -41.879 6.75402 -44.5226 4.98842C-47.183 3.21731 -49.6926 1.54552 -54.8402 1.54552C-59.9878 1.54552 -62.4973 3.21731 -65.1577 4.98842C-67.8014 6.7485 -70.5401 8.57478 -75.9447 8.57478C-81.3494 8.57478 -84.0825 6.75402 -86.7318 4.98842C-89.3866 3.21731 -91.9017 1.54552 -97.0493 1.54552C-102.197 1.54552 -104.706 3.21731 -107.367 4.98842C-110.011 6.7485 -112.749 8.57478 -118.148 8.57478C-123.547 8.57478 -126.286 6.75402 -128.93 4.98842C-131.585 3.21731 -134.1 1.54552 -139.242 1.54552C-144.384 1.54552 -146.899 3.21731 -149.554 4.98842C-152.197 6.7485 -154.936 8.57478 -160.335 8.57478C-165.734 8.57478 -168.473 6.75402 -171.117 4.98842C-173.771 3.21731 -176.286 1.54552 -181.434 1.54552C-186.582 1.54552 -189.091 3.21731 -191.746 4.98842C-194.39 6.75402 -197.128 8.57478 -202.527 8.57478C-207.927 8.57478 -210.665 6.75402 -213.309 4.98842C-215.964 3.21731 -218.479 1.54552 -223.626 1.54552C-228.774 1.54552 -231.284 3.21731 -233.938 4.98842C-236.582 6.75402 -239.321 8.57478 -244.72 8.57478C-250.119 8.57478 -252.858 6.75402 -255.501 4.98842C-258.156 3.21731 -260.671 1.54552 -265.813 1.54552C-270.955 1.54552 -273.47 3.21731 -276.125 4.98842C-278.769 6.7485 -281.508 8.57478 -286.907 8.57478C-292.306 8.57478 -295.044 6.75402 -297.688 4.98842C-300.343 3.21731 -302.858 1.54552 -308 1.54552V0.717896C-302.595 0.717896 -299.862 2.53866 -297.219 4.30426C-294.564 6.07537 -292.049 7.74716 -286.907 7.74716C-281.765 7.74716 -279.249 6.07537 -276.595 4.30426C-273.951 2.54418 -271.212 0.717896 -265.813 0.717896C-260.414 0.717896 -257.675 2.53866 -255.032 4.30426C-252.377 6.07537 -249.862 7.74716 -244.72 7.74716C-239.578 7.74716 -237.063 6.07537 -234.408 4.30426C-231.764 2.54418 -229.026 0.717896 -223.626 0.717896C-218.227 0.717896 -215.489 2.53866 -212.839 4.30426C-210.185 6.07537 -207.669 7.74716 -202.522 7.74716C-197.374 7.74716 -194.865 6.07537 -192.21 4.30426C-189.566 2.54418 -186.828 0.717896 -181.428 0.717896C-176.029 0.717896 -173.291 2.53866 -170.647 4.30426C-167.992 6.07537 -165.477 7.74716 -160.329 7.74716C-155.182 7.74716 -152.672 6.07537 -150.018 4.30426C-147.374 2.54418 -144.635 0.717896 -139.236 0.717896C-133.837 0.717896 -131.098 2.53866 -128.455 4.30426C-125.8 6.07537 -123.285 7.74716 -118.143 7.74716C-113.001 7.74716 -110.486 6.07537 -107.825 4.30426C-105.182 2.54418 -102.443 0.717896 -97.0437 0.717896C-91.6446 0.717896 -88.9059 2.53866 -86.2623 4.30426C-83.6074 6.07537 -81.0923 7.74716 -75.9447 7.74716C-70.7971 7.74716 -68.2876 6.07537 -65.6272 4.30426C-62.9835 2.54418 -60.2449 0.717896 -54.8402 0.717896C-49.4355 0.717896 -46.7024 2.53866 -44.0531 4.30426C-41.3983 6.07537 -38.8832 7.74716 -33.7356 7.74716C-28.588 7.74716 -26.0785 6.07537 -23.4236 4.30426C-20.78 2.53866 -18.0413 0.717896 -12.6422 0.717896C-7.2431 0.717896 -4.50443 2.53866 -1.86078 4.30426C0.799652 6.07537 3.30917 7.74716 8.45679 7.74716C13.6044 7.74716 16.1139 6.07537 18.7743 4.30426C21.418 2.54418 24.1567 0.717896 29.5613 0.717896C34.966 0.717896 37.6991 2.53866 40.3484 4.30426C43.0088 6.07537 45.5183 7.74716 50.6659 7.74716C55.8135 7.74716 58.323 6.07537 60.9835 4.30426C63.6271 2.54418 66.3658 0.717896 71.7705 0.717896C77.1752 0.717896 79.9083 2.53866 82.5575 4.30426C85.218 6.07537 87.7274 7.74716 92.8751 7.74716C98.0226 7.74716 100.532 6.07537 103.193 4.30426C105.836 2.54418 108.575 0.717896 113.98 0.717896V1.54552C108.832 1.54552 106.323 3.21731 103.662 4.98842C101.018 6.7485 98.2798 8.57478 92.8751 8.57478Z" fill="#0A3D88"/>
</svg>
