<svg width="100" height="9" viewBox="0 0 100 9" fill="none" xmlns="http://www.w3.org/2000/svg">
<path d="M401.627 8.08841C396.222 8.08841 393.489 6.2812 390.84 4.52876C388.179 2.77084 385.67 1.1115 380.522 1.1115C375.375 1.1115 372.865 2.77084 370.205 4.52876C367.561 6.27572 364.822 8.08841 359.418 8.08841C354.013 8.08841 351.28 6.2812 348.631 4.52876C345.97 2.77084 343.461 1.1115 338.313 1.1115C333.166 1.1115 330.656 2.77084 327.996 4.52876C325.352 6.27572 322.613 8.08841 317.209 8.08841C311.804 8.08841 309.071 6.2812 306.422 4.52876C303.767 2.77084 301.252 1.1115 296.104 1.1115C290.956 1.1115 288.447 2.77084 285.792 4.52876C283.148 6.27572 280.41 8.08841 275.011 8.08841C269.612 8.08841 266.873 6.2812 264.229 4.52876C261.569 2.77084 259.059 1.1115 253.912 1.1115C248.764 1.1115 246.255 2.77084 243.594 4.52876C240.95 6.27572 238.212 8.08841 232.807 8.08841C227.402 8.08841 224.669 6.2812 222.02 4.52876C219.365 2.77084 216.85 1.1115 211.703 1.1115C206.555 1.1115 204.045 2.77084 201.385 4.52876C198.741 6.27572 196.003 8.08841 190.604 8.08841C185.204 8.08841 182.466 6.2812 179.822 4.52876C177.167 2.77084 174.652 1.1115 169.51 1.1115C164.368 1.1115 161.853 2.77084 159.198 4.52876C156.555 6.27572 153.816 8.08841 148.417 8.08841C143.018 8.08841 140.279 6.2812 137.635 4.52876C134.98 2.77084 132.465 1.1115 127.318 1.1115C122.17 1.1115 119.661 2.77084 117.006 4.52876C114.362 6.2812 111.623 8.08841 106.224 8.08841C100.825 8.08841 98.0866 6.2812 95.4429 4.52876C92.7881 2.77084 90.273 1.1115 85.1254 1.1115C79.9778 1.1115 77.4683 2.77084 74.8134 4.52876C72.1698 6.2812 69.4311 8.08841 64.032 8.08841C58.6329 8.08841 55.8942 6.2812 53.2506 4.52876C50.5957 2.77084 48.0806 1.1115 42.9386 1.1115C37.7966 1.1115 35.2815 2.77084 32.6267 4.52876C29.983 6.27572 27.2443 8.08841 21.8452 8.08841C16.4461 8.08841 13.7074 6.2812 11.0638 4.52876C8.40895 2.77084 5.89383 1.1115 0.751831 1.1115V0.290039C6.15652 0.290039 8.88961 2.09725 11.5333 3.84969C14.1881 5.60761 16.7032 7.26695 21.8452 7.26695C26.9872 7.26695 29.5023 5.60761 32.1572 3.84969C34.8008 2.10272 37.5395 0.290039 42.9386 0.290039C48.3377 0.290039 51.0764 2.09725 53.7201 3.84969C56.3749 5.60761 58.89 7.26695 64.032 7.26695C69.174 7.26695 71.6891 5.60761 74.344 3.84969C76.9876 2.10272 79.7263 0.290039 85.1254 0.290039C90.5245 0.290039 93.2632 2.09725 95.9124 3.84969C98.5673 5.60761 101.082 7.26695 106.23 7.26695C111.378 7.26695 113.887 5.60761 116.542 3.84969C119.186 2.10272 121.924 0.290039 127.323 0.290039C132.722 0.290039 135.461 2.09725 138.105 3.84969C140.76 5.60761 143.275 7.26695 148.422 7.26695C153.57 7.26695 156.079 5.60761 158.734 3.84969C161.378 2.10272 164.117 0.290039 169.516 0.290039C174.915 0.290039 177.654 2.09725 180.297 3.84969C182.952 5.60761 185.467 7.26695 190.609 7.26695C195.751 7.26695 198.266 5.60761 200.927 3.84969C203.57 2.10272 206.309 0.290039 211.708 0.290039C217.107 0.290039 219.846 2.09725 222.49 3.84969C225.144 5.60761 227.66 7.26695 232.807 7.26695C237.955 7.26695 240.464 5.60761 243.125 3.84969C245.768 2.10272 248.507 0.290039 253.912 0.290039C259.316 0.290039 262.049 2.09725 264.699 3.84969C267.354 5.60761 269.869 7.26695 275.016 7.26695C280.164 7.26695 282.673 5.60761 285.328 3.84969C287.972 2.09725 290.711 0.290039 296.11 0.290039C301.509 0.290039 304.247 2.09725 306.891 3.84969C309.551 5.60761 312.061 7.26695 317.209 7.26695C322.356 7.26695 324.866 5.60761 327.526 3.84969C330.17 2.10272 332.909 0.290039 338.313 0.290039C343.718 0.290039 346.451 2.09725 349.1 3.84969C351.761 5.60761 354.27 7.26695 359.418 7.26695C364.565 7.26695 367.075 5.60761 369.735 3.84969C372.379 2.10272 375.118 0.290039 380.522 0.290039C385.927 0.290039 388.66 2.09725 391.309 3.84969C393.97 5.60761 396.479 7.26695 401.627 7.26695C406.774 7.26695 409.284 5.60761 411.944 3.84969C414.588 2.10272 417.327 0.290039 422.731 0.290039V1.1115C417.584 1.1115 415.074 2.77084 412.414 4.52876C409.77 6.27572 407.032 8.08841 401.627 8.08841Z" fill="#0A3D88"/>
</svg>
