<svg width="65" height="7" viewBox="0 0 65 7" fill="none" xmlns="http://www.w3.org/2000/svg">
<path id="Wave divider" d="M64.5064 1.68978C64.6079 1.68978 64.6902 1.6075 64.6902 1.506C64.6902 1.4868 64.6872 1.46828 64.6817 1.45088V1C64.6817 0.898499 64.5995 0.816217 64.498 0.816217C60.3915 0.816217 58.2983 1.94837 56.2994 3.02947L56.2966 3.031L56.2965 3.03108C54.3091 4.10816 52.4484 5.11383 48.6235 5.11383C44.7986 5.11383 42.9379 4.10818 40.9505 3.03112C38.9505 1.94598 36.8573 0.816217 32.749 0.816217C28.6425 0.816217 26.5493 1.94837 24.5505 3.02947L24.5476 3.031L24.5475 3.03108C22.5601 4.10816 20.6994 5.11383 16.8745 5.11383C13.0496 5.11383 11.1889 4.10819 9.20155 3.03112C7.20156 1.946 5.11253 0.816217 1 0.816217C0.898499 0.816217 0.816217 0.898499 0.816217 1V1.506C0.816217 1.6075 0.898499 1.68978 1 1.68978C4.82231 1.68978 6.67906 2.69186 8.67113 3.76697L8.68135 3.77249C8.68141 3.77252 8.68148 3.77256 8.68154 3.77259C10.6815 4.8577 12.7747 5.98739 16.8829 5.98739C20.9893 5.98739 23.0826 4.85524 25.0814 3.77414L25.0842 3.7726L25.0844 3.77253C27.0717 2.69545 28.9325 1.68978 32.7574 1.68978C36.5822 1.68978 38.443 2.69542 40.4303 3.77249C42.4304 4.85763 44.5236 5.98739 48.6319 5.98739C52.7402 5.98739 54.8334 4.85763 56.8334 3.77249C58.8208 2.6954 60.6773 1.68978 64.5064 1.68978Z" fill="#EE4E25" stroke="#EE4E25" stroke-width="0.367567" stroke-linejoin="round"/>
</svg>
