<svg width="4" height="31" viewBox="0 0 4 31" fill="none" xmlns="http://www.w3.org/2000/svg">
<path id="Wave divider" d="M0.760425 0.579111C0.760425 0.52836 0.719284 0.487219 0.668534 0.487219C0.659283 0.487219 0.650351 0.488586 0.64193 0.491129L0.358824 0.491129C0.308074 0.491129 0.266933 0.53227 0.266933 0.583021C0.266933 2.50015 0.963232 3.47813 1.6243 4.40663L1.62604 4.40907L1.62609 4.40915C1.95806 4.87447 2.27433 5.3191 2.50911 5.86968C2.74316 6.41858 2.8974 7.07608 2.8974 7.96424C2.8974 8.85241 2.74317 9.50991 2.50911 10.0588C2.27434 10.6094 1.95808 11.054 1.62612 11.5193C0.96233 12.4487 0.266933 13.4267 0.266933 15.3455C0.266933 17.2626 0.963236 18.2406 1.6243 19.1691L1.62604 19.1715L1.62609 19.1716C1.95806 19.6369 2.27433 20.0815 2.50911 20.6321C2.74317 21.181 2.8974 21.8385 2.8974 22.7267C2.8974 23.6148 2.74317 24.2724 2.50911 24.8213C2.27433 25.3718 1.95806 25.8165 1.62609 26.2818C0.962325 27.2112 0.266934 28.1872 0.266934 30.1079C0.266934 30.1587 0.308075 30.1998 0.358826 30.1998L0.668535 30.1998C0.719285 30.1998 0.760427 30.1587 0.760427 30.1079C0.760427 29.2188 0.91466 28.5613 1.14872 28.0121C1.38344 27.4614 1.69957 27.0164 2.03149 26.5492L2.0317 26.5489C2.03173 26.5489 2.03175 26.5489 2.03177 26.5488C2.69554 25.6195 3.39089 24.6415 3.39089 22.7228C3.39089 20.8056 2.69459 19.8277 2.03352 18.8992L2.03178 18.8967L2.03173 18.8967C1.69976 18.4313 1.38349 17.9867 1.14872 17.4361C0.914657 16.8872 0.760426 16.2297 0.760426 15.3416C0.760426 14.4534 0.914657 13.7959 1.14872 13.247C1.38348 12.6964 1.69974 12.2518 2.0317 11.7865C2.69549 10.8571 3.39089 9.8791 3.39089 7.96033C3.39089 6.04156 2.69549 5.06358 2.0317 4.13417C1.69972 3.66883 1.38347 3.22471 1.14871 2.6744C0.914661 2.12576 0.760425 1.46826 0.760425 0.579111Z" fill="#EE4E25" stroke="#EE4E25" stroke-width="0.183783" stroke-linejoin="round"/>
</svg>
