<svg width="177" height="22" viewBox="0 0 177 22" fill="none" xmlns="http://www.w3.org/2000/svg">
<g id="Wave">
<g id="Group 62">
<path id="Vector" d="M162.242 21.6672C158.464 21.6672 156.553 20.2909 154.701 18.9563C152.841 17.6175 151.087 16.3538 147.488 16.3538C143.89 16.3538 142.135 17.6175 140.279 18.9563C138.431 20.2909 136.517 21.6672 132.742 21.6672C128.968 21.6672 127.053 20.2909 125.205 18.9563C123.349 17.6175 121.591 16.3538 117.992 16.3538C114.394 16.3538 112.639 17.6175 110.783 18.9563C108.935 20.2868 107.021 21.6672 103.246 21.6672C99.4716 21.6672 97.5571 20.2909 95.7089 18.9563C93.8529 17.6175 92.0947 16.3538 88.496 16.3538C84.8974 16.3538 83.143 17.6175 81.2871 18.9563C79.4389 20.2909 77.5244 21.6672 73.7499 21.6672C69.9755 21.6672 68.0609 20.2909 66.2127 18.9563C64.3568 17.6175 62.5985 16.3538 58.9999 16.3538C55.4012 16.3538 53.6469 17.6175 51.7909 18.9563C49.9428 20.2909 48.0282 21.6672 44.2537 21.6672C40.4793 21.6672 38.5647 20.2909 36.7166 18.9563C34.8606 17.6175 33.1023 16.3538 29.5076 16.3538C25.9129 16.3538 24.1546 17.6175 22.2986 18.9563C20.4505 20.2909 18.5359 21.6672 14.7615 21.6672C10.987 21.6672 9.07243 20.2909 7.22428 18.9563C5.36831 17.6175 3.61003 16.3538 0.0153198 16.3538V15.7282C3.79368 15.7282 5.70434 17.1046 7.55249 18.4392C9.40846 19.7779 11.1667 21.0416 14.7615 21.0416C18.3562 21.0416 20.1145 19.7779 21.9704 18.4392C23.8186 17.1087 25.7331 15.7282 29.5076 15.7282C33.282 15.7282 35.1966 17.1046 37.0448 18.4392C38.9007 19.7779 40.659 21.0416 44.2537 21.0416C47.8484 21.0416 49.6067 19.7779 51.4627 18.4392C53.3108 17.1087 55.2254 15.7282 58.9999 15.7282C62.7743 15.7282 64.6889 17.1046 66.5409 18.4392C68.3969 19.7779 70.1552 21.0416 73.7538 21.0416C77.3524 21.0416 79.1068 19.7779 80.9628 18.4392C82.8109 17.1087 84.7255 15.7282 88.4999 15.7282C92.2744 15.7282 94.189 17.1046 96.0371 18.4392C97.8931 19.7779 99.6514 21.0416 103.25 21.0416C106.849 21.0416 108.603 19.7779 110.459 18.4392C112.307 17.1046 114.222 15.7282 117.996 15.7282C121.771 15.7282 123.685 17.1046 125.533 18.4392C127.389 19.7779 129.148 21.0416 132.742 21.0416C136.337 21.0416 138.095 19.7779 139.955 18.4392C141.803 17.1087 143.718 15.7282 147.492 15.7282C151.267 15.7282 153.181 17.1046 155.033 18.4392C156.893 19.7779 158.648 21.0416 162.246 21.0416C165.845 21.0416 167.599 19.7779 169.459 18.4392C171.307 17.1087 173.222 15.7282 177 15.7282V16.3538C173.402 16.3538 171.647 17.6175 169.787 18.9563C167.939 20.2868 166.025 21.6672 162.246 21.6672H162.242Z" fill="#EE4E25"/>
<path id="Vector_2" d="M162.243 13.939C158.464 13.939 156.554 12.5627 154.702 11.2281C152.842 9.8893 151.087 8.6256 147.489 8.6256C143.89 8.6256 142.136 9.8893 140.28 11.2281C138.432 12.5627 136.517 13.939 132.743 13.939C128.968 13.939 127.054 12.5627 125.205 11.2281C123.349 9.8893 121.591 8.6256 117.993 8.6256C114.394 8.6256 112.64 9.8893 110.784 11.2281C108.935 12.5585 107.021 13.939 103.246 13.939C99.4719 13.939 97.5574 12.5627 95.7092 11.2281C93.8532 9.8893 92.095 8.6256 88.4964 8.6256C84.8977 8.6256 83.1433 9.8893 81.2874 11.2281C79.4392 12.5627 77.5247 13.939 73.7502 13.939C69.9758 13.939 68.0612 12.5627 66.213 11.2281C64.3571 9.8893 62.5988 8.6256 59.0002 8.6256C55.4016 8.6256 53.6472 9.8893 51.7912 11.2281C49.9431 12.5627 48.0285 13.939 44.254 13.939C40.4796 13.939 38.565 12.5627 36.7169 11.2281C34.8609 9.8893 33.1026 8.6256 29.5079 8.6256C25.9132 8.6256 24.1549 9.8893 22.2989 11.2281C20.4508 12.5627 18.5362 13.939 14.7618 13.939C10.9873 13.939 9.07274 12.5627 7.22459 11.2281C5.353 9.8893 3.59862 8.6256 0 8.6256V8C3.77836 8 5.68902 9.37631 7.53717 10.7109C9.39314 12.0497 11.1514 13.3134 14.7461 13.3134C18.3408 13.3134 20.0991 12.0497 21.9551 10.7109C23.8032 9.38048 25.7178 8 29.4923 8C33.2667 8 35.1813 9.37631 37.0294 10.7109C38.8854 12.0497 40.6437 13.3134 44.2384 13.3134C47.8331 13.3134 49.5914 12.0497 51.4474 10.7109C53.2955 9.38048 55.2101 8 58.9845 8C62.759 8 64.6736 9.37631 66.5256 10.7109C68.3816 12.0497 70.1399 13.3134 73.7385 13.3134C77.3371 13.3134 79.0915 12.0497 80.9474 10.7109C82.7956 9.38048 84.7102 8 88.4846 8C92.2591 8 94.1737 9.37631 96.0218 10.7109C97.8778 12.0497 99.636 13.3134 103.235 13.3134C106.833 13.3134 108.588 12.0497 110.444 10.7109C112.292 9.37631 114.206 8 117.981 8C121.755 8 123.67 9.37631 125.518 10.7109C127.374 12.0497 129.132 13.3134 132.727 13.3134C136.322 13.3134 138.08 12.0497 139.94 10.7109C141.788 9.38048 143.703 8 147.477 8C151.251 8 153.166 9.37631 155.018 10.7109C156.878 12.0497 158.632 13.3134 162.231 13.3134C165.83 13.3134 167.584 12.0497 169.444 10.7109C171.292 9.38048 173.207 8 176.985 8V8.6256C173.386 8.6256 171.632 9.8893 169.772 11.2281C167.924 12.5585 166.009 13.939 162.231 13.939H162.243Z" fill="#EE4E25"/>
<path id="Vector_3" d="M162.243 5.939C158.464 5.939 156.554 4.56269 154.702 3.22808C152.842 1.8893 151.087 0.625597 147.489 0.625597C143.89 0.625597 142.136 1.8893 140.28 3.22808C138.432 4.56269 136.517 5.939 132.743 5.939C128.968 5.939 127.054 4.56269 125.205 3.22808C123.349 1.8893 121.591 0.625597 117.993 0.625597C114.394 0.625597 112.64 1.8893 110.784 3.22808C108.935 4.55852 107.021 5.939 103.246 5.939C99.4719 5.939 97.5574 4.56269 95.7092 3.22808C93.8532 1.8893 92.095 0.625597 88.4964 0.625597C84.8977 0.625597 83.1433 1.8893 81.2874 3.22808C79.4392 4.56269 77.5247 5.939 73.7502 5.939C69.9758 5.939 68.0612 4.56269 66.213 3.22808C64.3571 1.8893 62.5988 0.625597 59.0002 0.625597C55.4016 0.625597 53.6472 1.8893 51.7912 3.22808C49.9431 4.56269 48.0285 5.939 44.254 5.939C40.4796 5.939 38.565 4.56269 36.7169 3.22808C34.8609 1.8893 33.1026 0.625597 29.5079 0.625597C25.9132 0.625597 24.1549 1.8893 22.2989 3.22808C20.4508 4.56269 18.5362 5.939 14.7618 5.939C10.9873 5.939 9.07274 4.56269 7.22459 3.22808C5.353 1.8893 3.59862 0.625597 0 0.625597V0C3.77836 0 5.68902 1.37631 7.53717 2.71092C9.39314 4.0497 11.1514 5.3134 14.7461 5.3134C18.3408 5.3134 20.0991 4.0497 21.9551 2.71092C23.8032 1.38048 25.7178 0 29.4923 0C33.2667 0 35.1813 1.37631 37.0294 2.71092C38.8854 4.0497 40.6437 5.3134 44.2384 5.3134C47.8331 5.3134 49.5914 4.0497 51.4474 2.71092C53.2955 1.38048 55.2101 0 58.9845 0C62.759 0 64.6736 1.37631 66.5256 2.71092C68.3816 4.0497 70.1399 5.3134 73.7385 5.3134C77.3371 5.3134 79.0915 4.0497 80.9474 2.71092C82.7956 1.38048 84.7102 0 88.4846 0C92.2591 0 94.1737 1.37631 96.0218 2.71092C97.8778 4.0497 99.636 5.3134 103.235 5.3134C106.833 5.3134 108.588 4.0497 110.444 2.71092C112.292 1.37631 114.206 0 117.981 0C121.755 0 123.67 1.37631 125.518 2.71092C127.374 4.0497 129.132 5.3134 132.727 5.3134C136.322 5.3134 138.08 4.0497 139.94 2.71092C141.788 1.38048 143.703 0 147.477 0C151.251 0 153.166 1.37631 155.018 2.71092C156.878 4.0497 158.632 5.3134 162.231 5.3134C165.83 5.3134 167.584 4.0497 169.444 2.71092C171.292 1.38048 173.207 0 176.985 0V0.625597C173.386 0.625597 171.632 1.8893 169.772 3.22808C167.924 4.55852 166.009 5.939 162.231 5.939H162.243Z" fill="#EE4E25"/>
</g>
</g>
</svg>
